<?xml version="1.0" encoding="UTF-8" standalone="no"?>
<!DOCTYPE svg PUBLIC "-//W3C//DTD SVG 1.1//EN" "http://www.w3.org/Graphics/SVG/1.1/DTD/svg11.dtd">
<svg xmlns="http://www.w3.org/2000/svg" version="1.1" viewBox="0.00 0.00 1024.00 1024.00">
<g stroke-width="2.00" fill="none" stroke-linecap="butt">
<path stroke="#46823b" vector-effect="non-scaling-stroke" d="
  M 137.92 413.38
  C 147.63 423.17 160.15 426.73 173.18 423.00
  A 0.87 0.86 -20.7 0 0 173.73 421.79
  Q 172.37 418.92 171.27 415.74
  Q 169.93 411.87 165.99 406.97"
/>
<path stroke="#749549" vector-effect="non-scaling-stroke" d="
  M 165.99 406.97
  Q 160.11 397.01 150.26 391.04
  A 0.22 0.22 0.0 0 1 150.19 390.74
  L 150.19 390.73
  A 0.25 0.25 0.0 0 1 150.52 390.64
  C 155.35 393.42 162.40 396.99 166.40 401.39
  C 174.23 410.02 178.61 418.35 182.65 429.64
  A 2.08 2.04 42.8 0 1 182.71 430.83
  L 177.58 450.76"
/>
<path stroke="#46823b" vector-effect="non-scaling-stroke" d="
  M 177.58 450.76
  C 175.27 465.01 176.62 481.77 176.90 493.88
  Q 176.94 495.88 177.22 497.18
  A 0.88 0.88 0.0 0 0 178.70 497.62
  L 186.65 489.67
  A 1.87 1.86 61.4 0 0 187.15 487.95
  Q 185.97 482.43 185.91 479.25
  Q 185.60 463.61 186.97 447.90"
/>
<path stroke="#749549" vector-effect="non-scaling-stroke" d="
  M 186.97 447.90
  Q 188.75 433.08 195.74 418.23
  Q 207.60 393.04 229.95 378.43
  Q 236.08 374.42 248.25 368.92
  A 0.70 0.63 29.7 0 1 248.53 368.86
  L 250.08 368.86
  A 0.34 0.33 30.9 0 1 250.24 369.49
  Q 238.50 375.68 229.68 384.67
  Q 221.77 392.73 218.69 396.71"
/>
<path stroke="#46823b" vector-effect="non-scaling-stroke" d="
  M 218.69 396.71
  Q 210.85 408.09 205.64 420.70
  A 0.98 0.98 0.0 0 0 206.08 421.93
  Q 208.55 423.28 211.69 423.84
  C 228.86 426.90 246.09 425.04 261.77 416.64"
/>
<path stroke="#749549" vector-effect="non-scaling-stroke" d="
  M 261.77 416.64
  Q 275.12 409.11 284.10 396.54
  Q 288.48 390.41 290.21 386.73
  Q 297.57 371.09 300.38 354.24
  C 301.59 347.05 301.69 341.20 301.78 334.15
  A 0.76 0.76 0.0 0 0 300.81 333.41
  C 288.37 336.97 277.21 337.86 262.76 338.82
  Q 252.21 339.52 235.37 344.21
  Q 231.86 345.19 227.01 347.37
  Q 219.76 350.63 218.95 351.11
  Q 197.58 363.57 188.56 386.50
  Q 185.73 393.71 184.54 400.16
  Q 184.44 400.70 183.92 400.47
  Q 183.63 400.34 183.42 399.82
  Q 178.21 386.97 165.82 380.21
  Q 160.77 377.46 152.98 375.63
  Q 144.29 373.58 139.49 373.11
  Q 130.37 372.21 124.66 371.45
  A 0.49 0.49 0.0 0 0 124.11 371.93
  Q 123.96 387.75 130.49 402.02
  Q 133.57 408.76 137.92 413.38"
/>
<path stroke="#8ccb68" vector-effect="non-scaling-stroke" d="
  M 261.77 416.64
  Q 264.66 412.69 268.71 409.55
  Q 270.99 407.78 271.72 406.86
  C 276.83 400.38 276.85 397.12 269.92 392.39
  A 0.66 0.66 0.0 0 0 269.12 392.42
  C 258.91 400.57 246.27 406.30 233.33 402.99
  C 228.86 401.85 223.51 398.82 218.69 396.71"
/>
<path stroke="#8ccb68" vector-effect="non-scaling-stroke" d="
  M 186.97 447.90
  Q 182.82 451.69 177.58 450.76"
/>
<path stroke="#8ccb68" vector-effect="non-scaling-stroke" d="
  M 165.99 406.97
  C 160.54 411.73 155.03 411.14 148.36 410.32
  C 143.71 409.76 141.06 410.19 137.92 413.38"
/>
<path stroke="#46823b" vector-effect="non-scaling-stroke" d="
  M 77.26 510.27
  Q 77.21 540.49 77.10 570.67
  Q 77.08 577.05 78.02 579.72
  C 80.91 587.93 87.74 593.78 96.75 593.84
  Q 133.84 594.11 158.07 594.31
  C 176.13 594.47 196.39 593.73 215.28 594.22
  C 224.67 594.47 234.75 594.04 242.18 594.13
  Q 249.17 594.22 253.16 592.62
  Q 261.95 589.10 265.35 580.24
  Q 266.69 576.75 266.75 569.20
  Q 266.96 543.96 266.92 518.70"
/>
<path stroke="#749549" vector-effect="non-scaling-stroke" d="
  M 266.92 518.70
  Q 266.96 491.47 266.90 464.22
  Q 266.88 454.29 265.45 450.49
  Q 261.90 441.02 251.55 437.76
  C 248.12 436.68 243.55 436.76 240.00 436.81
  Q 223.97 437.05 204.41 436.84
  A 2.20 2.20 0.0 0 0 202.30 438.34
  Q 200.72 442.99 199.91 446.37
  C 199.35 448.70 201.66 449.36 203.50 449.37
  Q 240.42 449.40 240.58 449.40
  C 246.40 449.39 250.65 450.01 253.63 454.64
  Q 254.81 456.46 254.76 463.18
  Q 254.57 487.00 254.83 510.79"
/>
<path stroke="#46823b" vector-effect="non-scaling-stroke" d="
  M 254.83 510.79
  L 254.80 571.60
  A 4.92 4.73 -39.5 0 1 254.67 572.71
  Q 253.09 579.46 245.84 581.40
  A 2.99 2.88 -50.8 0 1 245.01 581.50
  Q 231.66 580.98 208.00 581.38
  C 187.58 581.71 158.26 580.98 133.63 581.20
  Q 102.58 581.48 100.91 581.54
  C 99.08 581.61 95.53 581.22 94.35 580.66
  C 89.30 578.25 89.22 573.45 89.27 568.25
  Q 89.58 537.61 89.16 506.95"
/>
<path stroke="#749549" vector-effect="non-scaling-stroke" d="
  M 89.16 506.95
  Q 89.12 484.04 89.16 461.10
  Q 89.17 456.67 90.04 455.04
  C 92.93 449.61 96.66 449.30 103.42 449.31
  Q 151.50 449.37 159.75 449.28
  Q 162.41 449.25 163.58 449.07
  A 2.55 2.54 89.7 0 0 165.72 446.90
  L 166.69 439.78
  A 1.73 1.73 0.0 0 0 166.22 438.35
  Q 164.84 436.95 162.25 436.94
  Q 127.52 436.85 104.50 436.92
  C 97.89 436.95 92.78 437.01 87.24 439.88
  C 82.29 442.43 79.19 447.89 77.75 452.96
  Q 77.17 455.01 77.22 461.08
  Q 77.43 485.70 77.26 510.27"
/>
<path stroke="#8ccb68" vector-effect="non-scaling-stroke" d="
  M 89.16 506.95
  L 88.85 510.07
  A 0.51 0.51 0.0 0 1 88.33 510.53
  L 77.26 510.27"
/>
<path stroke="#8ccb68" vector-effect="non-scaling-stroke" d="
  M 266.92 518.70
  L 266.61 520.57
  A 0.52 0.52 0.0 0 1 265.92 520.98
  L 255.55 517.20
  A 0.75 0.73 -81.2 0 1 255.07 516.53
  L 254.83 510.79"
/>
<path stroke="#96a58d" vector-effect="non-scaling-stroke" d="
  M 429.72 462.00
  C 432.28 462.04 434.56 460.85 434.70 458.16
  Q 434.94 453.61 434.88 446.70
  A 1.42 1.36 26.3 0 0 434.56 445.82
  C 432.15 442.89 428.91 443.14 424.71 443.13
  C 420.41 443.12 414.42 442.74 413.07 447.72
  C 412.50 449.84 411.97 458.77 414.98 461.34
  A 1.58 1.52 65.1 0 0 415.91 461.70
  Q 419.81 461.85 429.72 462.00"
/>
<path stroke="#96a58d" vector-effect="non-scaling-stroke" d="
  M 611.8919 448.1855
  A 4.75 4.75 0.0 0 0 607.1752 443.4025
  L 595.0755 443.3180
  A 4.75 4.75 0.0 0 0 590.2924 448.0347
  L 590.2281 457.2545
  A 4.75 4.75 0.0 0 0 594.9448 462.0375
  L 607.0445 462.1220
  A 4.75 4.75 0.0 0 0 611.8276 457.4053
  L 611.8919 448.1855"
/>
<path stroke="#96a58d" vector-effect="non-scaling-stroke" d="
  M 361.39 533.00
  Q 367.26 532.99 373.33 532.84
  A 0.94 0.93 -79.8 0 0 374.16 532.26
  L 407.87 445.61
  A 0.64 0.63 -79.3 0 0 407.28 444.74
  L 385.73 444.74
  A 0.59 0.58 -80.0 0 0 385.18 445.13
  L 361.74 509.44
  A 0.39 0.32 -14.8 0 1 361.65 509.57
  Q 361.52 509.67 361.35 509.67
  Q 361.19 509.67 361.06 509.57
  A 0.39 0.32 14.6 0 1 360.96 509.44
  L 337.31 445.21
  A 0.59 0.58 79.8 0 0 336.75 444.82
  L 315.20 444.90
  A 0.64 0.63 79.1 0 0 314.62 445.77
  L 348.62 532.30
  A 0.94 0.93 79.6 0 0 349.46 532.88
  Q 355.52 533.01 361.39 533.00"
/>
<path stroke="#749549" vector-effect="non-scaling-stroke" d="
  M 699.22 533.03
  L 719.99 533.03
  A 1.21 1.21 0.0 0 0 721.13 532.23
  L 727.47 514.85
  A 0.34 0.34 0.0 0 1 727.79 514.62
  L 763.11 514.62
  A 0.85 0.84 -9.7 0 1 763.91 515.18
  L 770.14 532.50
  A 0.66 0.66 0.0 0 0 770.76 532.93
  L 792.91 532.93
  A 0.52 0.52 0.0 0 0 793.35 532.14
  Q 792.03 530.04 790.85 527.14
  Q 780.68 502.17 770.25 474.62
  C 766.92 465.83 762.44 455.35 758.98 445.45
  A 0.85 0.84 -9.7 0 0 758.18 444.89
  L 732.91 444.89
  A 0.65 0.65 0.0 0 0 732.30 445.31
  L 698.55 532.04
  A 0.72 0.72 0.0 0 0 699.22 533.03"
/>
<path stroke="#46823b" vector-effect="non-scaling-stroke" d="
  M 181.29 510.49
  L 158.95 532.27
  A 0.93 0.93 0.0 0 1 157.64 532.26
  L 151.04 525.72"
/>
<path stroke="#749549" vector-effect="non-scaling-stroke" d="
  M 151.04 525.72
  Q 144.43 519.67 138.18 513.32
  Q 135.46 510.56 134.04 510.15
  C 129.98 508.94 125.23 512.48 123.04 515.37
  Q 121.00 518.05 122.33 521.62
  A 2.02 1.95 13.0 0 0 122.78 522.31
  L 133.69 533.09"
/>
<path stroke="#46823b" vector-effect="non-scaling-stroke" d="
  M 133.69 533.09
  Q 142.77 541.89 151.55 550.97
  Q 154.98 554.51 159.88 553.34
  C 165.16 552.08 168.90 546.06 172.35 542.59
  Q 184.84 530.04 197.38 517.53"
/>
<path stroke="#749549" vector-effect="non-scaling-stroke" d="
  M 197.38 517.53
  Q 215.48 499.30 234.08 481.56
  Q 235.93 479.79 236.33 478.91
  C 240.01 470.77 232.40 462.58 224.42 467.40
  A 4.03 4.01 -83.0 0 0 223.67 467.99
  L 181.29 510.49"
/>
<path stroke="#8ccb68" vector-effect="non-scaling-stroke" d="
  M 197.38 517.53
  Q 189.52 513.27 181.29 510.49"
/>
<path stroke="#8ccb68" vector-effect="non-scaling-stroke" d="
  M 151.04 525.72
  L 133.69 533.09"
/>
<path stroke="#749549" vector-effect="non-scaling-stroke" d="
  M 876.38 558.66
  A 0.65 0.64 -0.1 0 0 877.03 559.30
  L 895.75 559.25
  A 0.79 0.79 0.0 0 0 896.54 558.46
  L 896.47 526.70
  A 0.39 0.38 27.1 0 1 897.17 526.47
  C 902.70 534.11 913.52 536.00 922.38 534.30
  C 941.06 530.69 946.22 511.52 944.57 495.17
  C 942.94 478.99 932.50 467.27 915.32 467.89
  C 907.59 468.17 901.50 471.04 897.22 477.33
  A 0.64 0.64 0.0 0 1 896.04 476.97
  L 896.03 470.22
  A 0.54 0.54 0.0 0 0 895.49 469.68
  L 876.96 469.73
  A 0.79 0.78 -0.1 0 0 876.17 470.51
  L 876.38 558.66"
/>
<path stroke="#96a58d" vector-effect="non-scaling-stroke" d="
  M 559.77 525.98
  A 0.37 0.37 0.0 0 1 560.43 526.21
  L 560.43 532.18
  A 0.73 0.72 90.0 0 0 561.15 532.91
  L 578.96 532.91
  A 0.68 0.67 -89.6 0 0 579.63 532.24
  Q 579.66 528.52 579.66 498.80
  Q 579.66 488.76 578.47 484.77
  C 574.75 472.35 563.16 468.28 550.33 467.97
  Q 535.18 467.61 522.95 472.30
  A 1.58 1.57 -10.6 0 0 521.94 473.77
  L 521.94 485.74
  A 0.87 0.86 77.7 0 0 523.16 486.53
  Q 532.55 482.19 542.24 481.64
  C 550.57 481.16 559.55 482.80 559.57 493.23
  A 0.57 0.57 0.0 0 1 558.90 493.79
  Q 548.70 492.01 537.33 493.18
  C 528.43 494.09 518.39 498.92 516.37 508.53
  C 512.12 528.79 529.16 537.60 546.36 534.22
  Q 554.55 532.61 559.77 525.98"
/>
<path stroke="#96a58d" vector-effect="non-scaling-stroke" d="
  M 621.34 501.38
  C 621.32 516.99 629.90 529.05 644.80 533.28
  Q 650.34 534.85 657.77 534.86
  Q 665.21 534.87 670.75 533.31
  C 685.66 529.11 694.27 517.08 694.29 501.46
  C 694.31 485.85 685.73 473.79 670.83 469.56
  Q 665.29 467.99 657.86 467.98
  Q 650.42 467.97 644.88 469.53
  C 629.97 473.73 621.36 485.76 621.34 501.38"
/>
<path stroke="#749549" vector-effect="non-scaling-stroke" d="
  M 798.11 558.51
  A 0.65 0.64 0.0 0 0 798.76 559.15
  L 817.45 559.15
  A 0.79 0.79 0.0 0 0 818.24 558.36
  L 818.24 526.65
  A 0.39 0.38 27.2 0 1 818.94 526.43
  C 824.45 534.07 835.24 535.98 844.09 534.30
  C 862.75 530.74 867.95 511.62 866.34 495.29
  C 864.75 479.14 854.36 467.41 837.20 467.99
  C 829.49 468.25 823.40 471.10 819.11 477.37
  A 0.64 0.64 0.0 0 1 817.94 477.01
  L 817.94 470.27
  A 0.54 0.54 0.0 0 0 817.40 469.73
  L 798.90 469.73
  A 0.79 0.78 0.0 0 0 798.11 470.51
  L 798.11 558.51"
/>
<path stroke="#96a58d" vector-effect="non-scaling-stroke" d="
  M 611.2364 470.6428
  A 0.89 0.89 0.0 0 0 610.3449 469.7543
  L 592.3249 469.7858
  A 0.89 0.89 0.0 0 0 591.4365 470.6773
  L 591.5436 532.0572
  A 0.89 0.89 0.0 0 0 592.4351 532.9457
  L 610.4551 532.9142
  A 0.89 0.89 0.0 0 0 611.3435 532.0227
  L 611.2364 470.6428"
/>
<path stroke="#96a58d" vector-effect="non-scaling-stroke" d="
  M 434.17 470.69
  A 0.82 0.82 0.0 0 0 433.35 469.87
  L 415.05 469.87
  A 0.82 0.82 0.0 0 0 414.23 470.69
  L 414.23 532.15
  A 0.82 0.82 0.0 0 0 415.05 532.97
  L 433.35 532.97
  A 0.82 0.82 0.0 0 0 434.17 532.15
  L 434.17 470.69"
/>
<path stroke="#96a58d" vector-effect="non-scaling-stroke" d="
  M 477.34 532.95
  Q 485.90 532.95 487.51 532.93
  A 1.08 1.08 0.0 0 0 488.51 532.26
  L 514.17 470.55
  A 0.58 0.58 0.0 0 0 513.63 469.75
  L 494.01 469.75
  A 0.70 0.70 0.0 0 0 493.35 470.21
  L 477.70 511.57
  A 0.22 0.21 -7.9 0 1 477.64 511.64
  Q 477.51 511.74 477.35 511.74
  Q 477.19 511.74 477.05 511.64
  A 0.22 0.21 8.0 0 1 477.00 511.57
  L 461.38 470.20
  A 0.70 0.70 0.0 0 0 460.73 469.73
  L 441.11 469.72
  A 0.58 0.58 0.0 0 0 440.56 470.52
  L 466.17 532.25
  A 1.08 1.08 0.0 0 0 467.16 532.92
  Q 468.78 532.94 477.34 532.95"
/>
<path stroke="#749549" vector-effect="non-scaling-stroke" d="
  M 114.85 474.83
  A 4.30 4.29 -2.0 0 0 119.35 479.02
  L 137.69 478.14
  A 5.22 4.54 -39.5 0 1 138.46 478.16
  Q 146.57 479.07 153.85 479.95
  Q 158.72 480.53 160.80 476.36
  C 161.93 474.09 159.50 471.65 157.84 470.57
  Q 156.93 469.98 153.71 470.15
  Q 138.37 470.93 118.94 470.48
  A 4.00 4.00 0.0 0 0 114.85 474.60
  L 114.85 474.83"
/>
<path stroke="#46823b" vector-effect="non-scaling-stroke" d="
  M 224.61 552.26
  Q 221.48 553.81 217.75 553.82
  Q 211.17 553.85 197.77 553.88
  A 9.37 8.96 -37.7 0 1 195.86 553.68
  C 191.60 552.79 186.39 551.38 184.12 556.42
  C 183.00 558.91 186.54 560.80 188.50 560.80
  Q 196.70 560.82 203.18 561.13
  C 211.70 561.55 219.67 561.38 226.51 560.69
  Q 234.97 559.84 233.65 551.20
  A 2.86 2.72 29.5 0 0 233.41 550.41
  C 232.31 548.08 227.77 543.60 226.28 548.78
  Q 226.13 549.32 225.39 551.38
  A 1.55 1.55 0.0 0 1 224.61 552.26"
/>
<path stroke="#749549" vector-effect="non-scaling-stroke" d="
  M 458.52 582.54
  C 458.53 587.91 460.64 592.19 465.94 593.71
  C 469.88 594.83 476.93 594.10 478.29 589.37
  Q 478.60 588.31 477.82 587.75
  A 1.16 1.12 36.5 0 0 476.25 587.96
  Q 472.58 592.79 466.36 590.78
  A 3.21 3.11 70.9 0 1 465.50 590.35
  C 462.91 588.46 461.88 585.80 461.88 582.53
  C 461.87 579.27 462.89 576.60 465.47 574.70
  A 3.21 3.11 -71.2 0 1 466.32 574.27
  Q 472.53 572.23 476.23 577.04
  A 1.16 1.12 -36.7 0 0 477.80 577.25
  Q 478.57 576.68 478.26 575.62
  C 476.88 570.90 469.83 570.20 465.90 571.34
  C 460.60 572.88 458.51 577.17 458.52 582.54"
/>
<path stroke="#749549" vector-effect="non-scaling-stroke" d="
  M 338.26 585.26
  L 338.26 589.01
  A 2.09 2.08 -6.0 0 1 336.60 591.05
  Q 328.50 592.79 325.41 588.38
  Q 322.57 584.33 324.08 578.73
  Q 325.41 573.82 331.72 573.32
  Q 335.66 573.01 339.38 575.76
  A 0.95 0.95 0.0 0 0 340.67 575.62
  L 340.69 575.60
  A 1.02 1.01 -46.7 0 0 340.65 574.22
  Q 337.26 570.74 331.47 571.02
  C 323.88 571.39 320.23 576.75 320.63 583.93
  C 321.14 593.08 331.00 596.02 338.42 593.21
  Q 340.46 592.43 341.30 591.11
  A 1.49 1.49 0.0 0 0 341.54 590.30
  L 341.54 582.44
  A 0.74 0.73 -88.8 0 0 340.84 581.70
  Q 337.30 581.55 333.34 581.68
  Q 332.26 581.72 331.94 582.70
  Q 331.13 585.18 336.82 584.07
  A 1.21 1.21 0.0 0 1 338.26 585.26"
/>
<path stroke="#749549" vector-effect="non-scaling-stroke" d="
  M 353.49 579.93
  L 353.51 574.36
  A 0.79 0.79 0.0 0 1 354.31 573.58
  L 364.63 573.72
  A 1.25 1.25 0.0 0 0 365.90 572.48
  L 365.90 572.29
  A 1.23 1.23 0.0 0 0 364.66 571.04
  L 351.19 571.16
  A 0.76 0.76 0.0 0 0 350.43 571.91
  L 350.15 593.30
  A 0.58 0.58 0.0 0 0 350.73 593.88
  L 364.90 593.92
  A 1.34 1.34 0.0 0 0 366.23 592.60
  L 366.23 592.39
  A 1.19 1.18 -88.4 0 0 365.03 591.12
  L 354.25 591.30
  A 0.76 0.76 0.0 0 1 353.48 590.55
  L 353.51 583.96
  A 0.75 0.74 -89.6 0 1 354.25 583.22
  L 363.78 583.19
  A 1.11 1.11 0.0 0 0 364.89 582.05
  L 364.88 581.76
  A 0.99 0.98 88.5 0 0 363.90 580.82
  L 354.29 580.75
  A 0.81 0.81 0.0 0 1 353.49 579.93"
/>
<path stroke="#749549" vector-effect="non-scaling-stroke" d="
  M 389.30 573.69
  C 385.46 569.54 372.45 569.46 373.70 578.27
  C 374.42 583.28 382.28 583.46 384.97 584.68
  C 387.72 585.91 388.16 588.68 385.76 590.39
  Q 385.09 590.86 382.96 591.11
  Q 378.00 591.69 375.19 588.87
  A 1.39 1.38 46.2 0 0 373.28 588.83
  L 373.23 588.87
  A 1.38 1.37 -41.2 0 0 373.09 590.76
  C 376.52 594.92 382.90 595.10 387.28 592.95
  Q 390.26 591.49 390.83 588.12
  C 391.88 581.95 382.82 580.67 378.83 579.63
  C 377.07 579.17 376.09 577.37 377.05 575.58
  Q 377.91 574.00 380.47 573.74
  Q 384.55 573.34 387.81 575.46
  A 1.17 1.17 0.0 0 0 389.30 573.69"
/>
<path stroke="#749549" vector-effect="non-scaling-stroke" d="
  M 405.72 593.71
  Q 406.57 593.71 406.65 593.67
  A 0.71 0.69 79.5 0 0 407.07 593.04
  L 407.21 574.49
  A 0.73 0.73 0.0 0 1 407.94 573.77
  L 414.01 573.77
  A 1.09 1.09 0.0 0 0 415.10 572.68
  L 415.10 572.32
  A 1.15 1.15 0.0 0 0 413.95 571.17
  Q 409.66 571.17 405.71 571.18
  Q 401.77 571.17 397.47 571.18
  A 1.15 1.15 0.0 0 0 396.33 572.32
  L 396.33 572.68
  A 1.09 1.09 0.0 0 0 397.42 573.77
  L 403.49 573.77
  A 0.73 0.73 0.0 0 1 404.22 574.49
  L 404.36 593.04
  A 0.71 0.69 -79.5 0 0 404.78 593.67
  Q 404.86 593.71 405.72 593.71"
/>
<path stroke="#749549" vector-effect="non-scaling-stroke" d="
  M 450.45 573.66
  C 446.60 569.48 433.51 569.35 434.74 578.22
  C 435.45 583.26 443.35 583.47 446.06 584.70
  C 448.82 585.95 449.25 588.74 446.83 590.45
  Q 446.16 590.92 444.01 591.16
  Q 439.02 591.73 436.20 588.89
  A 1.39 1.39 0.0 0 0 434.28 588.84
  L 434.23 588.88
  A 1.39 1.38 -41.0 0 0 434.09 590.78
  C 437.52 594.98 443.94 595.18 448.35 593.03
  Q 451.35 591.57 451.94 588.18
  C 453.01 581.98 443.90 580.66 439.89 579.60
  C 438.13 579.14 437.15 577.32 438.12 575.53
  Q 438.99 573.94 441.56 573.69
  Q 445.67 573.30 448.94 575.44
  A 1.18 1.18 0.0 0 0 450.45 573.66"
/>
<path stroke="#749549" vector-effect="non-scaling-stroke" d="
  M 489.8163 572.1057
  A 0.98 0.98 0.0 0 0 488.8397 571.1223
  L 487.5797 571.1179
  A 0.98 0.98 0.0 0 0 486.5963 572.0944
  L 486.5237 592.8943
  A 0.98 0.98 0.0 0 0 487.5003 593.8777
  L 488.7603 593.8821
  A 0.98 0.98 0.0 0 0 489.7437 592.9056
  L 489.8163 572.1057"
/>
<path stroke="#749549" vector-effect="non-scaling-stroke" d="
  M 541.66 582.53
  C 541.70 590.64 547.80 595.31 555.77 593.88
  Q 559.91 593.14 561.85 589.99
  A 1.32 1.31 -58.2 0 0 561.43 588.19
  L 561.34 588.13
  A 1.35 1.33 -57.0 0 0 559.50 588.53
  Q 557.72 591.21 553.89 591.44
  C 547.92 591.80 545.23 587.93 545.20 582.51
  C 545.17 577.10 547.83 573.20 553.81 573.50
  Q 557.64 573.70 559.44 576.36
  A 1.35 1.33 56.5 0 0 561.29 576.74
  L 561.37 576.68
  A 1.32 1.31 57.7 0 0 561.78 574.88
  Q 559.81 571.75 555.66 571.05
  C 547.68 569.69 541.63 574.42 541.66 582.53"
/>
<path stroke="#749549" vector-effect="non-scaling-stroke" d="
  M 588.56 592.49
  L 582.99 584.11
  A 0.31 0.31 0.0 0 1 583.08 583.69
  C 585.20 582.31 586.73 581.11 587.00 578.49
  C 587.56 573.06 583.03 570.93 578.13 571.15
  Q 577.48 571.18 571.00 571.08
  A 0.52 0.51 0.0 0 0 570.48 571.59
  L 570.48 592.72
  A 1.08 1.08 0.0 0 0 571.56 593.80
  L 572.43 593.80
  A 0.96 0.95 90.0 0 0 573.38 592.84
  L 573.38 584.96
  A 0.64 0.64 0.0 0 1 574.02 584.32
  L 579.14 584.32
  A 1.14 1.13 74.7 0 1 580.12 584.89
  L 584.84 593.05
  A 1.70 1.70 0.0 0 0 586.32 593.91
  L 587.80 593.91
  A 0.92 0.91 73.2 0 0 588.56 592.49"
/>
<path stroke="#749549" vector-effect="non-scaling-stroke" d="
  M 610.66 581.30
  A 0.54 0.54 0.0 0 0 610.12 580.76
  L 599.88 580.76
  A 0.54 0.54 0.0 0 1 599.34 580.22
  L 599.34 574.13
  A 0.54 0.54 0.0 0 1 599.88 573.59
  L 611.08 573.59
  A 0.54 0.54 0.0 0 0 611.62 573.05
  L 611.62 571.60
  A 0.54 0.54 0.0 0 0 611.08 571.06
  L 596.65 571.06
  A 0.54 0.54 0.0 0 0 596.11 571.60
  L 596.11 593.36
  A 0.54 0.54 0.0 0 0 596.65 593.90
  L 611.43 593.90
  A 0.54 0.54 0.0 0 0 611.97 593.36
  L 611.97 591.76
  A 0.54 0.54 0.0 0 0 611.43 591.22
  L 599.88 591.22
  A 0.54 0.54 0.0 0 1 599.34 590.68
  L 599.34 583.72
  A 0.54 0.54 0.0 0 1 599.88 583.18
  L 610.12 583.18
  A 0.54 0.54 0.0 0 0 610.66 582.64
  L 610.66 581.30"
/>
<path stroke="#749549" vector-effect="non-scaling-stroke" d="
  M 635.17 575.32
  Q 635.51 573.72 633.82 572.61
  Q 630.03 570.11 624.63 571.17
  C 620.95 571.89 618.05 575.19 619.24 579.04
  C 620.51 583.13 626.87 583.25 629.98 584.26
  C 633.12 585.27 634.42 589.51 630.88 590.74
  Q 625.04 592.75 621.16 588.80
  A 1.56 1.50 19.5 0 0 618.51 590.00
  Q 618.73 591.54 620.57 592.54
  Q 626.40 595.71 632.53 593.10
  C 638.10 590.72 637.37 582.92 631.27 581.74
  C 628.33 581.16 622.93 580.51 622.75 577.49
  Q 622.57 574.28 625.91 573.68
  Q 630.41 572.88 633.51 575.76
  A 1.02 0.96 28.4 0 0 635.17 575.32"
/>
<path stroke="#749549" vector-effect="non-scaling-stroke" d="
  M 642.84 582.54
  C 642.86 590.55 648.86 595.17 656.73 593.79
  Q 660.82 593.07 662.75 589.96
  A 1.30 1.30 0.0 0 0 662.34 588.18
  L 662.25 588.13
  A 1.33 1.32 -56.9 0 0 660.43 588.52
  Q 658.67 591.16 654.89 591.38
  C 648.99 591.71 646.34 587.88 646.33 582.54
  C 646.32 577.19 648.96 573.35 654.85 573.66
  Q 658.63 573.87 660.41 576.50
  A 1.33 1.32 56.6 0 0 662.23 576.88
  L 662.31 576.82
  A 1.30 1.30 0.0 0 0 662.72 575.04
  Q 660.78 571.95 656.68 571.25
  C 648.81 569.89 642.83 574.54 642.84 582.54"
/>
<path stroke="#749549" vector-effect="non-scaling-stroke" d="
  M 674.0254 571.8818
  A 0.82 0.82 0.0 0 0 673.2011 571.0661
  L 671.6611 571.0742
  A 0.82 0.82 0.0 0 0 670.8454 571.8985
  L 670.9546 592.7582
  A 0.82 0.82 0.0 0 0 671.7789 593.5739
  L 673.3189 593.5658
  A 0.82 0.82 0.0 0 0 674.1346 592.7415
  L 674.0254 571.8818"
/>
<path stroke="#749549" vector-effect="non-scaling-stroke" d="
  M 723.60 593.37
  A 0.43 0.43 0.0 0 0 724.03 592.94
  L 724.03 583.99
  A 0.43 0.43 0.0 0 1 724.46 583.56
  L 734.67 583.56
  A 0.43 0.43 0.0 0 0 735.10 583.13
  L 735.10 581.73
  A 0.43 0.43 0.0 0 0 734.67 581.30
  L 724.45 581.30
  A 0.43 0.43 0.0 0 1 724.02 580.87
  L 724.02 573.93
  A 0.43 0.43 0.0 0 1 724.45 573.50
  L 735.73 573.50
  A 0.43 0.43 0.0 0 0 736.16 573.07
  L 736.16 571.73
  A 0.43 0.43 0.0 0 0 735.73 571.30
  L 721.81 571.30
  A 0.43 0.43 0.0 0 0 721.38 571.73
  L 721.38 592.94
  A 0.43 0.43 0.0 0 0 721.81 593.37
  L 723.60 593.37"
/>
<path stroke="#749549" vector-effect="non-scaling-stroke" d="
  M 747.3908 572.2268
  A 1.23 1.23 0.0 0 0 746.1501 571.0076
  L 745.4901 571.0133
  A 1.23 1.23 0.0 0 0 744.2709 572.2540
  L 744.4492 592.6932
  A 1.23 1.23 0.0 0 0 745.6899 593.9124
  L 746.3499 593.9067
  A 1.23 1.23 0.0 0 0 747.5691 592.6660
  L 747.3908 572.2268"
/>
<path stroke="#749549" vector-effect="non-scaling-stroke" d="
  M 777.9953 581.2195
  A 9.94 9.94 0.0 0 0 768.2479 571.0905
  L 766.3283 571.0537
  A 9.94 9.94 0.0 0 0 756.1993 580.8010
  L 756.1447 583.6405
  A 9.94 9.94 0.0 0 0 765.8921 593.7695
  L 767.8117 593.8063
  A 9.94 9.94 0.0 0 0 777.9407 584.0590
  L 777.9953 581.2195"
/>
<path stroke="#749549" vector-effect="non-scaling-stroke" d="
  M 804.35 592.21
  L 798.77 583.92
  A 0.31 0.30 -33.8 0 1 798.86 583.51
  C 800.96 582.12 802.47 580.92 802.72 578.32
  C 803.25 572.92 798.74 570.83 793.87 571.08
  Q 793.23 571.11 786.79 571.05
  A 0.52 0.51 -0.3 0 0 786.28 571.56
  L 786.40 592.55
  A 1.07 1.07 0.0 0 0 787.48 593.61
  L 788.34 593.61
  A 0.95 0.94 89.7 0 0 789.28 592.65
  L 789.24 584.82
  A 0.64 0.64 0.0 0 1 789.87 584.18
  L 794.95 584.15
  A 1.14 1.12 74.4 0 1 795.93 584.72
  L 800.66 592.79
  A 1.69 1.69 0.0 0 0 802.14 593.64
  L 803.61 593.63
  A 0.91 0.91 0.0 0 0 804.35 592.21"
/>
<path stroke="#749549" vector-effect="non-scaling-stroke" d="
  M 837.72 587.25
  C 837.72 591.94 831.57 591.31 828.51 590.80
  A 2.17 2.17 0.0 0 1 827.48 590.32
  Q 826.66 589.63 826.01 589.02
  A 1.63 1.53 -60.4 0 0 823.46 589.81
  Q 823.11 590.87 824.45 591.91
  Q 828.68 595.18 834.98 594.01
  C 841.61 592.78 844.15 584.57 836.84 582.03
  Q 836.19 581.80 829.85 579.88
  C 826.00 578.72 827.44 574.38 830.98 573.71
  Q 835.40 572.88 838.78 575.53
  A 1.07 1.06 4.6 0 0 840.37 574.18
  C 838.56 570.88 833.31 570.64 829.91 571.21
  C 825.80 571.91 823.30 575.38 824.76 579.51
  C 826.65 584.83 837.73 582.31 837.72 587.25"
/>
<path stroke="#749549" vector-effect="non-scaling-stroke" d="
  M 847.79 582.68
  C 847.96 592.66 856.49 596.80 865.07 592.79
  Q 866.92 591.92 868.00 589.83
  A 1.61 1.60 30.6 0 0 867.46 587.76
  L 867.41 587.72
  A 1.47 1.46 33.9 0 0 865.39 588.11
  Q 863.62 590.71 861.01 591.05
  C 854.61 591.88 851.23 588.97 851.12 582.62
  C 851.01 576.28 854.28 573.25 860.71 573.85
  Q 863.33 574.10 865.19 576.63
  A 1.47 1.46 -35.9 0 0 867.22 576.95
  L 867.27 576.91
  A 1.61 1.60 -32.6 0 0 867.73 574.82
  Q 866.58 572.77 864.70 571.97
  C 855.98 568.27 847.61 572.71 847.79 582.68"
/>
<path stroke="#749549" vector-effect="non-scaling-stroke" d="
  M 879.7259 572.1666
  A 1.11 1.11 0.0 0 0 878.6198 571.0527
  L 877.0998 571.0474
  A 1.11 1.11 0.0 0 0 875.9859 572.1535
  L 875.9141 592.7334
  A 1.11 1.11 0.0 0 0 877.0202 593.8473
  L 878.5402 593.8526
  A 1.11 1.11 0.0 0 0 879.6541 592.7465
  L 879.7259 572.1666"
/>
<path stroke="#749549" vector-effect="non-scaling-stroke" d="
  M 425.9144 572.1985
  A 0.85 0.85 0.0 0 0 425.0689 571.3440
  L 423.5889 571.3363
  A 0.85 0.85 0.0 0 0 422.7345 572.1818
  L 422.6256 592.9815
  A 0.85 0.85 0.0 0 0 423.4711 593.8360
  L 424.9511 593.8437
  A 0.85 0.85 0.0 0 0 425.8055 592.9982
  L 425.9144 572.1985"
/>
<path stroke="#749549" vector-effect="non-scaling-stroke" d="
  M 815.61 572.14
  A 0.96 0.96 0.0 0 0 814.65 571.18
  L 813.07 571.18
  A 0.96 0.96 0.0 0 0 812.11 572.14
  L 812.11 592.86
  A 0.96 0.96 0.0 0 0 813.07 593.82
  L 814.65 593.82
  A 0.96 0.96 0.0 0 0 815.61 592.86
  L 815.61 572.14"
/>
<path stroke="#749549" vector-effect="non-scaling-stroke" d="
  M 518.9683 583.9316
  A 0.82 0.82 0.0 0 0 518.1455 583.1144
  L 509.2255 583.1456
  A 0.82 0.82 0.0 0 0 508.4084 583.9684
  L 508.4117 584.9084
  A 0.82 0.82 0.0 0 0 509.2345 585.7256
  L 518.1545 585.6944
  A 0.82 0.82 0.0 0 0 518.9716 584.8716
  L 518.9683 583.9316"
/>
<path stroke="#749549" vector-effect="non-scaling-stroke" d="
  M 701.8592 584.0013
  A 0.76 0.76 0.0 0 0 701.0979 583.2427
  L 692.6779 583.2573
  A 0.76 0.76 0.0 0 0 691.9192 584.0187
  L 691.9208 584.9187
  A 0.76 0.76 0.0 0 0 692.6821 585.6773
  L 701.1021 585.6627
  A 0.76 0.76 0.0 0 0 701.8608 584.9013
  L 701.8592 584.0013"
/>
<path stroke="#749549" vector-effect="non-scaling-stroke" d="
  M 733.60 498.60
  A 0.34 0.34 0.0 0 0 733.92 499.05
  L 757.08 498.93
  A 0.34 0.34 0.0 0 0 757.39 498.47
  L 745.65 466.77
  A 0.34 0.34 0.0 0 0 745.01 466.78
  L 733.60 498.60"
/>
<path stroke="#749549" vector-effect="non-scaling-stroke" d="
  M 896.23 501.52
  C 896.30 510.47 899.45 519.82 910.26 519.74
  C 921.07 519.66 924.08 510.26 924.02 501.31
  C 923.95 492.36 920.80 483.01 909.99 483.09
  C 899.17 483.17 896.16 492.57 896.23 501.52"
/>
<path stroke="#96a58d" vector-effect="non-scaling-stroke" d="
  M 560.07 506.95
  A 0.90 0.90 0.0 0 0 559.42 506.07
  C 553.01 504.24 536.24 502.32 535.75 512.72
  C 535.51 517.74 539.08 520.97 543.94 521.60
  C 553.69 522.85 559.98 516.64 560.07 506.95"
/>
<path stroke="#96a58d" vector-effect="non-scaling-stroke" d="
  M 642.60 501.02
  C 642.36 510.88 646.29 520.03 657.39 520.30
  C 668.50 520.56 672.85 511.61 673.08 501.75
  C 673.32 491.89 669.39 482.74 658.29 482.48
  C 647.18 482.21 642.83 491.16 642.60 501.02"
/>
<path stroke="#749549" vector-effect="non-scaling-stroke" d="
  M 817.97 501.33
  C 817.91 510.23 820.92 519.59 831.68 519.65
  C 842.45 519.72 845.57 510.40 845.62 501.49
  C 845.67 492.59 842.67 483.24 831.90 483.17
  C 821.14 483.11 818.02 492.42 817.97 501.33"
/>
<path stroke="#749549" vector-effect="non-scaling-stroke" d="
  M 573.26 574.48
  L 573.26 580.96
  A 0.96 0.96 0.0 0 0 574.22 581.92
  L 579.72 581.92
  A 4.16 4.08 -0.0 0 0 583.88 577.84
  L 583.88 577.60
  A 4.16 4.08 -0.0 0 0 579.72 573.52
  L 574.22 573.52
  A 0.96 0.96 0.0 0 0 573.26 574.48"
/>
<path stroke="#749549" vector-effect="non-scaling-stroke" d="
  M 774.9079 581.1996
  A 7.20 7.20 0.0 0 0 768.1875 573.5500
  L 766.9102 573.4674
  A 7.20 7.20 0.0 0 0 759.2606 580.1878
  L 759.0321 583.7204
  A 7.20 7.20 0.0 0 0 765.7525 591.3700
  L 767.0298 591.4526
  A 7.20 7.20 0.0 0 0 774.6794 584.7322
  L 774.9079 581.1996"
/>
<path stroke="#749549" vector-effect="non-scaling-stroke" d="
  M 789.30 574.23
  L 789.40 581.31
  A 0.46 0.46 0.0 0 0 789.87 581.77
  L 795.82 581.68
  A 3.95 3.85 -0.8 0 0 799.71 577.78
  L 799.71 577.48
  A 3.95 3.85 -0.8 0 0 795.70 573.68
  L 789.75 573.77
  A 0.46 0.46 0.0 0 0 789.30 574.23"
/>
</g>
<path fill="#2d4c1c" d="
  M 1024.00 0.00
  L 1024.00 1024.00
  L 0.00 1024.00
  L 0.00 0.00
  L 1024.00 0.00
  Z
  M 137.92 413.38
  C 147.63 423.17 160.15 426.73 173.18 423.00
  A 0.87 0.86 -20.7 0 0 173.73 421.79
  Q 172.37 418.92 171.27 415.74
  Q 169.93 411.87 165.99 406.97
  Q 160.11 397.01 150.26 391.04
  A 0.22 0.22 0.0 0 1 150.19 390.74
  L 150.19 390.73
  A 0.25 0.25 0.0 0 1 150.52 390.64
  C 155.35 393.42 162.40 396.99 166.40 401.39
  C 174.23 410.02 178.61 418.35 182.65 429.64
  A 2.08 2.04 42.8 0 1 182.71 430.83
  L 177.58 450.76
  C 175.27 465.01 176.62 481.77 176.90 493.88
  Q 176.94 495.88 177.22 497.18
  A 0.88 0.88 0.0 0 0 178.70 497.62
  L 186.65 489.67
  A 1.87 1.86 61.4 0 0 187.15 487.95
  Q 185.97 482.43 185.91 479.25
  Q 185.60 463.61 186.97 447.90
  Q 188.75 433.08 195.74 418.23
  Q 207.60 393.04 229.95 378.43
  Q 236.08 374.42 248.25 368.92
  A 0.70 0.63 29.7 0 1 248.53 368.86
  L 250.08 368.86
  A 0.34 0.33 30.9 0 1 250.24 369.49
  Q 238.50 375.68 229.68 384.67
  Q 221.77 392.73 218.69 396.71
  Q 210.85 408.09 205.64 420.70
  A 0.98 0.98 0.0 0 0 206.08 421.93
  Q 208.55 423.28 211.69 423.84
  C 228.86 426.90 246.09 425.04 261.77 416.64
  Q 275.12 409.11 284.10 396.54
  Q 288.48 390.41 290.21 386.73
  Q 297.57 371.09 300.38 354.24
  C 301.59 347.05 301.69 341.20 301.78 334.15
  A 0.76 0.76 0.0 0 0 300.81 333.41
  C 288.37 336.97 277.21 337.86 262.76 338.82
  Q 252.21 339.52 235.37 344.21
  Q 231.86 345.19 227.01 347.37
  Q 219.76 350.63 218.95 351.11
  Q 197.58 363.57 188.56 386.50
  Q 185.73 393.71 184.54 400.16
  Q 184.44 400.70 183.92 400.47
  Q 183.63 400.34 183.42 399.82
  Q 178.21 386.97 165.82 380.21
  Q 160.77 377.46 152.98 375.63
  Q 144.29 373.58 139.49 373.11
  Q 130.37 372.21 124.66 371.45
  A 0.49 0.49 0.0 0 0 124.11 371.93
  Q 123.96 387.75 130.49 402.02
  Q 133.57 408.76 137.92 413.38
  Z
  M 77.26 510.27
  Q 77.21 540.49 77.10 570.67
  Q 77.08 577.05 78.02 579.72
  C 80.91 587.93 87.74 593.78 96.75 593.84
  Q 133.84 594.11 158.07 594.31
  C 176.13 594.47 196.39 593.73 215.28 594.22
  C 224.67 594.47 234.75 594.04 242.18 594.13
  Q 249.17 594.22 253.16 592.62
  Q 261.95 589.10 265.35 580.24
  Q 266.69 576.75 266.75 569.20
  Q 266.96 543.96 266.92 518.70
  Q 266.96 491.47 266.90 464.22
  Q 266.88 454.29 265.45 450.49
  Q 261.90 441.02 251.55 437.76
  C 248.12 436.68 243.55 436.76 240.00 436.81
  Q 223.97 437.05 204.41 436.84
  A 2.20 2.20 0.0 0 0 202.30 438.34
  Q 200.72 442.99 199.91 446.37
  C 199.35 448.70 201.66 449.36 203.50 449.37
  Q 240.42 449.40 240.58 449.40
  C 246.40 449.39 250.65 450.01 253.63 454.64
  Q 254.81 456.46 254.76 463.18
  Q 254.57 487.00 254.83 510.79
  L 254.80 571.60
  A 4.92 4.73 -39.5 0 1 254.67 572.71
  Q 253.09 579.46 245.84 581.40
  A 2.99 2.88 -50.8 0 1 245.01 581.50
  Q 231.66 580.98 208.00 581.38
  C 187.58 581.71 158.26 580.98 133.63 581.20
  Q 102.58 581.48 100.91 581.54
  C 99.08 581.61 95.53 581.22 94.35 580.66
  C 89.30 578.25 89.22 573.45 89.27 568.25
  Q 89.58 537.61 89.16 506.95
  Q 89.12 484.04 89.16 461.10
  Q 89.17 456.67 90.04 455.04
  C 92.93 449.61 96.66 449.30 103.42 449.31
  Q 151.50 449.37 159.75 449.28
  Q 162.41 449.25 163.58 449.07
  A 2.55 2.54 89.7 0 0 165.72 446.90
  L 166.69 439.78
  A 1.73 1.73 0.0 0 0 166.22 438.35
  Q 164.84 436.95 162.25 436.94
  Q 127.52 436.85 104.50 436.92
  C 97.89 436.95 92.78 437.01 87.24 439.88
  C 82.29 442.43 79.19 447.89 77.75 452.96
  Q 77.17 455.01 77.22 461.08
  Q 77.43 485.70 77.26 510.27
  Z
  M 429.72 462.00
  C 432.28 462.04 434.56 460.85 434.70 458.16
  Q 434.94 453.61 434.88 446.70
  A 1.42 1.36 26.3 0 0 434.56 445.82
  C 432.15 442.89 428.91 443.14 424.71 443.13
  C 420.41 443.12 414.42 442.74 413.07 447.72
  C 412.50 449.84 411.97 458.77 414.98 461.34
  A 1.58 1.52 65.1 0 0 415.91 461.70
  Q 419.81 461.85 429.72 462.00
  Z
  M 611.8919 448.1855
  A 4.75 4.75 0.0 0 0 607.1752 443.4025
  L 595.0755 443.3180
  A 4.75 4.75 0.0 0 0 590.2924 448.0347
  L 590.2281 457.2545
  A 4.75 4.75 0.0 0 0 594.9448 462.0375
  L 607.0445 462.1220
  A 4.75 4.75 0.0 0 0 611.8276 457.4053
  L 611.8919 448.1855
  Z
  M 361.39 533.00
  Q 367.26 532.99 373.33 532.84
  A 0.94 0.93 -79.8 0 0 374.16 532.26
  L 407.87 445.61
  A 0.64 0.63 -79.3 0 0 407.28 444.74
  L 385.73 444.74
  A 0.59 0.58 -80.0 0 0 385.18 445.13
  L 361.74 509.44
  A 0.39 0.32 -14.8 0 1 361.65 509.57
  Q 361.52 509.67 361.35 509.67
  Q 361.19 509.67 361.06 509.57
  A 0.39 0.32 14.6 0 1 360.96 509.44
  L 337.31 445.21
  A 0.59 0.58 79.8 0 0 336.75 444.82
  L 315.20 444.90
  A 0.64 0.63 79.1 0 0 314.62 445.77
  L 348.62 532.30
  A 0.94 0.93 79.6 0 0 349.46 532.88
  Q 355.52 533.01 361.39 533.00
  Z
  M 699.22 533.03
  L 719.99 533.03
  A 1.21 1.21 0.0 0 0 721.13 532.23
  L 727.47 514.85
  A 0.34 0.34 0.0 0 1 727.79 514.62
  L 763.11 514.62
  A 0.85 0.84 -9.7 0 1 763.91 515.18
  L 770.14 532.50
  A 0.66 0.66 0.0 0 0 770.76 532.93
  L 792.91 532.93
  A 0.52 0.52 0.0 0 0 793.35 532.14
  Q 792.03 530.04 790.85 527.14
  Q 780.68 502.17 770.25 474.62
  C 766.92 465.83 762.44 455.35 758.98 445.45
  A 0.85 0.84 -9.7 0 0 758.18 444.89
  L 732.91 444.89
  A 0.65 0.65 0.0 0 0 732.30 445.31
  L 698.55 532.04
  A 0.72 0.72 0.0 0 0 699.22 533.03
  Z
  M 181.29 510.49
  L 158.95 532.27
  A 0.93 0.93 0.0 0 1 157.64 532.26
  L 151.04 525.72
  Q 144.43 519.67 138.18 513.32
  Q 135.46 510.56 134.04 510.15
  C 129.98 508.94 125.23 512.48 123.04 515.37
  Q 121.00 518.05 122.33 521.62
  A 2.02 1.95 13.0 0 0 122.78 522.31
  L 133.69 533.09
  Q 142.77 541.89 151.55 550.97
  Q 154.98 554.51 159.88 553.34
  C 165.16 552.08 168.90 546.06 172.35 542.59
  Q 184.84 530.04 197.38 517.53
  Q 215.48 499.30 234.08 481.56
  Q 235.93 479.79 236.33 478.91
  C 240.01 470.77 232.40 462.58 224.42 467.40
  A 4.03 4.01 -83.0 0 0 223.67 467.99
  L 181.29 510.49
  Z
  M 876.38 558.66
  A 0.65 0.64 -0.1 0 0 877.03 559.30
  L 895.75 559.25
  A 0.79 0.79 0.0 0 0 896.54 558.46
  L 896.47 526.70
  A 0.39 0.38 27.1 0 1 897.17 526.47
  C 902.70 534.11 913.52 536.00 922.38 534.30
  C 941.06 530.69 946.22 511.52 944.57 495.17
  C 942.94 478.99 932.50 467.27 915.32 467.89
  C 907.59 468.17 901.50 471.04 897.22 477.33
  A 0.64 0.64 0.0 0 1 896.04 476.97
  L 896.03 470.22
  A 0.54 0.54 0.0 0 0 895.49 469.68
  L 876.96 469.73
  A 0.79 0.78 -0.1 0 0 876.17 470.51
  L 876.38 558.66
  Z
  M 559.77 525.98
  A 0.37 0.37 0.0 0 1 560.43 526.21
  L 560.43 532.18
  A 0.73 0.72 90.0 0 0 561.15 532.91
  L 578.96 532.91
  A 0.68 0.67 -89.6 0 0 579.63 532.24
  Q 579.66 528.52 579.66 498.80
  Q 579.66 488.76 578.47 484.77
  C 574.75 472.35 563.16 468.28 550.33 467.97
  Q 535.18 467.61 522.95 472.30
  A 1.58 1.57 -10.6 0 0 521.94 473.77
  L 521.94 485.74
  A 0.87 0.86 77.7 0 0 523.16 486.53
  Q 532.55 482.19 542.24 481.64
  C 550.57 481.16 559.55 482.80 559.57 493.23
  A 0.57 0.57 0.0 0 1 558.90 493.79
  Q 548.70 492.01 537.33 493.18
  C 528.43 494.09 518.39 498.92 516.37 508.53
  C 512.12 528.79 529.16 537.60 546.36 534.22
  Q 554.55 532.61 559.77 525.98
  Z
  M 621.34 501.38
  C 621.32 516.99 629.90 529.05 644.80 533.28
  Q 650.34 534.85 657.77 534.86
  Q 665.21 534.87 670.75 533.31
  C 685.66 529.11 694.27 517.08 694.29 501.46
  C 694.31 485.85 685.73 473.79 670.83 469.56
  Q 665.29 467.99 657.86 467.98
  Q 650.42 467.97 644.88 469.53
  C 629.97 473.73 621.36 485.76 621.34 501.38
  Z
  M 798.11 558.51
  A 0.65 0.64 0.0 0 0 798.76 559.15
  L 817.45 559.15
  A 0.79 0.79 0.0 0 0 818.24 558.36
  L 818.24 526.65
  A 0.39 0.38 27.2 0 1 818.94 526.43
  C 824.45 534.07 835.24 535.98 844.09 534.30
  C 862.75 530.74 867.95 511.62 866.34 495.29
  C 864.75 479.14 854.36 467.41 837.20 467.99
  C 829.49 468.25 823.40 471.10 819.11 477.37
  A 0.64 0.64 0.0 0 1 817.94 477.01
  L 817.94 470.27
  A 0.54 0.54 0.0 0 0 817.40 469.73
  L 798.90 469.73
  A 0.79 0.78 0.0 0 0 798.11 470.51
  L 798.11 558.51
  Z
  M 611.2364 470.6428
  A 0.89 0.89 0.0 0 0 610.3449 469.7543
  L 592.3249 469.7858
  A 0.89 0.89 0.0 0 0 591.4365 470.6773
  L 591.5436 532.0572
  A 0.89 0.89 0.0 0 0 592.4351 532.9457
  L 610.4551 532.9142
  A 0.89 0.89 0.0 0 0 611.3435 532.0227
  L 611.2364 470.6428
  Z
  M 434.17 470.69
  A 0.82 0.82 0.0 0 0 433.35 469.87
  L 415.05 469.87
  A 0.82 0.82 0.0 0 0 414.23 470.69
  L 414.23 532.15
  A 0.82 0.82 0.0 0 0 415.05 532.97
  L 433.35 532.97
  A 0.82 0.82 0.0 0 0 434.17 532.15
  L 434.17 470.69
  Z
  M 477.34 532.95
  Q 485.90 532.95 487.51 532.93
  A 1.08 1.08 0.0 0 0 488.51 532.26
  L 514.17 470.55
  A 0.58 0.58 0.0 0 0 513.63 469.75
  L 494.01 469.75
  A 0.70 0.70 0.0 0 0 493.35 470.21
  L 477.70 511.57
  A 0.22 0.21 -7.9 0 1 477.64 511.64
  Q 477.51 511.74 477.35 511.74
  Q 477.19 511.74 477.05 511.64
  A 0.22 0.21 8.0 0 1 477.00 511.57
  L 461.38 470.20
  A 0.70 0.70 0.0 0 0 460.73 469.73
  L 441.11 469.72
  A 0.58 0.58 0.0 0 0 440.56 470.52
  L 466.17 532.25
  A 1.08 1.08 0.0 0 0 467.16 532.92
  Q 468.78 532.94 477.34 532.95
  Z
  M 114.85 474.83
  A 4.30 4.29 -2.0 0 0 119.35 479.02
  L 137.69 478.14
  A 5.22 4.54 -39.5 0 1 138.46 478.16
  Q 146.57 479.07 153.85 479.95
  Q 158.72 480.53 160.80 476.36
  C 161.93 474.09 159.50 471.65 157.84 470.57
  Q 156.93 469.98 153.71 470.15
  Q 138.37 470.93 118.94 470.48
  A 4.00 4.00 0.0 0 0 114.85 474.60
  L 114.85 474.83
  Z
  M 224.61 552.26
  Q 221.48 553.81 217.75 553.82
  Q 211.17 553.85 197.77 553.88
  A 9.37 8.96 -37.7 0 1 195.86 553.68
  C 191.60 552.79 186.39 551.38 184.12 556.42
  C 183.00 558.91 186.54 560.80 188.50 560.80
  Q 196.70 560.82 203.18 561.13
  C 211.70 561.55 219.67 561.38 226.51 560.69
  Q 234.97 559.84 233.65 551.20
  A 2.86 2.72 29.5 0 0 233.41 550.41
  C 232.31 548.08 227.77 543.60 226.28 548.78
  Q 226.13 549.32 225.39 551.38
  A 1.55 1.55 0.0 0 1 224.61 552.26
  Z
  M 458.52 582.54
  C 458.53 587.91 460.64 592.19 465.94 593.71
  C 469.88 594.83 476.93 594.10 478.29 589.37
  Q 478.60 588.31 477.82 587.75
  A 1.16 1.12 36.5 0 0 476.25 587.96
  Q 472.58 592.79 466.36 590.78
  A 3.21 3.11 70.9 0 1 465.50 590.35
  C 462.91 588.46 461.88 585.80 461.88 582.53
  C 461.87 579.27 462.89 576.60 465.47 574.70
  A 3.21 3.11 -71.2 0 1 466.32 574.27
  Q 472.53 572.23 476.23 577.04
  A 1.16 1.12 -36.7 0 0 477.80 577.25
  Q 478.57 576.68 478.26 575.62
  C 476.88 570.90 469.83 570.20 465.90 571.34
  C 460.60 572.88 458.51 577.17 458.52 582.54
  Z
  M 338.26 585.26
  L 338.26 589.01
  A 2.09 2.08 -6.0 0 1 336.60 591.05
  Q 328.50 592.79 325.41 588.38
  Q 322.57 584.33 324.08 578.73
  Q 325.41 573.82 331.72 573.32
  Q 335.66 573.01 339.38 575.76
  A 0.95 0.95 0.0 0 0 340.67 575.62
  L 340.69 575.60
  A 1.02 1.01 -46.7 0 0 340.65 574.22
  Q 337.26 570.74 331.47 571.02
  C 323.88 571.39 320.23 576.75 320.63 583.93
  C 321.14 593.08 331.00 596.02 338.42 593.21
  Q 340.46 592.43 341.30 591.11
  A 1.49 1.49 0.0 0 0 341.54 590.30
  L 341.54 582.44
  A 0.74 0.73 -88.8 0 0 340.84 581.70
  Q 337.30 581.55 333.34 581.68
  Q 332.26 581.72 331.94 582.70
  Q 331.13 585.18 336.82 584.07
  A 1.21 1.21 0.0 0 1 338.26 585.26
  Z
  M 353.49 579.93
  L 353.51 574.36
  A 0.79 0.79 0.0 0 1 354.31 573.58
  L 364.63 573.72
  A 1.25 1.25 0.0 0 0 365.90 572.48
  L 365.90 572.29
  A 1.23 1.23 0.0 0 0 364.66 571.04
  L 351.19 571.16
  A 0.76 0.76 0.0 0 0 350.43 571.91
  L 350.15 593.30
  A 0.58 0.58 0.0 0 0 350.73 593.88
  L 364.90 593.92
  A 1.34 1.34 0.0 0 0 366.23 592.60
  L 366.23 592.39
  A 1.19 1.18 -88.4 0 0 365.03 591.12
  L 354.25 591.30
  A 0.76 0.76 0.0 0 1 353.48 590.55
  L 353.51 583.96
  A 0.75 0.74 -89.6 0 1 354.25 583.22
  L 363.78 583.19
  A 1.11 1.11 0.0 0 0 364.89 582.05
  L 364.88 581.76
  A 0.99 0.98 88.5 0 0 363.90 580.82
  L 354.29 580.75
  A 0.81 0.81 0.0 0 1 353.49 579.93
  Z
  M 389.30 573.69
  C 385.46 569.54 372.45 569.46 373.70 578.27
  C 374.42 583.28 382.28 583.46 384.97 584.68
  C 387.72 585.91 388.16 588.68 385.76 590.39
  Q 385.09 590.86 382.96 591.11
  Q 378.00 591.69 375.19 588.87
  A 1.39 1.38 46.2 0 0 373.28 588.83
  L 373.23 588.87
  A 1.38 1.37 -41.2 0 0 373.09 590.76
  C 376.52 594.92 382.90 595.10 387.28 592.95
  Q 390.26 591.49 390.83 588.12
  C 391.88 581.95 382.82 580.67 378.83 579.63
  C 377.07 579.17 376.09 577.37 377.05 575.58
  Q 377.91 574.00 380.47 573.74
  Q 384.55 573.34 387.81 575.46
  A 1.17 1.17 0.0 0 0 389.30 573.69
  Z
  M 405.72 593.71
  Q 406.57 593.71 406.65 593.67
  A 0.71 0.69 79.5 0 0 407.07 593.04
  L 407.21 574.49
  A 0.73 0.73 0.0 0 1 407.94 573.77
  L 414.01 573.77
  A 1.09 1.09 0.0 0 0 415.10 572.68
  L 415.10 572.32
  A 1.15 1.15 0.0 0 0 413.95 571.17
  Q 409.66 571.17 405.71 571.18
  Q 401.77 571.17 397.47 571.18
  A 1.15 1.15 0.0 0 0 396.33 572.32
  L 396.33 572.68
  A 1.09 1.09 0.0 0 0 397.42 573.77
  L 403.49 573.77
  A 0.73 0.73 0.0 0 1 404.22 574.49
  L 404.36 593.04
  A 0.71 0.69 -79.5 0 0 404.78 593.67
  Q 404.86 593.71 405.72 593.71
  Z
  M 450.45 573.66
  C 446.60 569.48 433.51 569.35 434.74 578.22
  C 435.45 583.26 443.35 583.47 446.06 584.70
  C 448.82 585.95 449.25 588.74 446.83 590.45
  Q 446.16 590.92 444.01 591.16
  Q 439.02 591.73 436.20 588.89
  A 1.39 1.39 0.0 0 0 434.28 588.84
  L 434.23 588.88
  A 1.39 1.38 -41.0 0 0 434.09 590.78
  C 437.52 594.98 443.94 595.18 448.35 593.03
  Q 451.35 591.57 451.94 588.18
  C 453.01 581.98 443.90 580.66 439.89 579.60
  C 438.13 579.14 437.15 577.32 438.12 575.53
  Q 438.99 573.94 441.56 573.69
  Q 445.67 573.30 448.94 575.44
  A 1.18 1.18 0.0 0 0 450.45 573.66
  Z
  M 489.8163 572.1057
  A 0.98 0.98 0.0 0 0 488.8397 571.1223
  L 487.5797 571.1179
  A 0.98 0.98 0.0 0 0 486.5963 572.0944
  L 486.5237 592.8943
  A 0.98 0.98 0.0 0 0 487.5003 593.8777
  L 488.7603 593.8821
  A 0.98 0.98 0.0 0 0 489.7437 592.9056
  L 489.8163 572.1057
  Z
  M 541.66 582.53
  C 541.70 590.64 547.80 595.31 555.77 593.88
  Q 559.91 593.14 561.85 589.99
  A 1.32 1.31 -58.2 0 0 561.43 588.19
  L 561.34 588.13
  A 1.35 1.33 -57.0 0 0 559.50 588.53
  Q 557.72 591.21 553.89 591.44
  C 547.92 591.80 545.23 587.93 545.20 582.51
  C 545.17 577.10 547.83 573.20 553.81 573.50
  Q 557.64 573.70 559.44 576.36
  A 1.35 1.33 56.5 0 0 561.29 576.74
  L 561.37 576.68
  A 1.32 1.31 57.7 0 0 561.78 574.88
  Q 559.81 571.75 555.66 571.05
  C 547.68 569.69 541.63 574.42 541.66 582.53
  Z
  M 588.56 592.49
  L 582.99 584.11
  A 0.31 0.31 0.0 0 1 583.08 583.69
  C 585.20 582.31 586.73 581.11 587.00 578.49
  C 587.56 573.06 583.03 570.93 578.13 571.15
  Q 577.48 571.18 571.00 571.08
  A 0.52 0.51 0.0 0 0 570.48 571.59
  L 570.48 592.72
  A 1.08 1.08 0.0 0 0 571.56 593.80
  L 572.43 593.80
  A 0.96 0.95 90.0 0 0 573.38 592.84
  L 573.38 584.96
  A 0.64 0.64 0.0 0 1 574.02 584.32
  L 579.14 584.32
  A 1.14 1.13 74.7 0 1 580.12 584.89
  L 584.84 593.05
  A 1.70 1.70 0.0 0 0 586.32 593.91
  L 587.80 593.91
  A 0.92 0.91 73.2 0 0 588.56 592.49
  Z
  M 610.66 581.30
  A 0.54 0.54 0.0 0 0 610.12 580.76
  L 599.88 580.76
  A 0.54 0.54 0.0 0 1 599.34 580.22
  L 599.34 574.13
  A 0.54 0.54 0.0 0 1 599.88 573.59
  L 611.08 573.59
  A 0.54 0.54 0.0 0 0 611.62 573.05
  L 611.62 571.60
  A 0.54 0.54 0.0 0 0 611.08 571.06
  L 596.65 571.06
  A 0.54 0.54 0.0 0 0 596.11 571.60
  L 596.11 593.36
  A 0.54 0.54 0.0 0 0 596.65 593.90
  L 611.43 593.90
  A 0.54 0.54 0.0 0 0 611.97 593.36
  L 611.97 591.76
  A 0.54 0.54 0.0 0 0 611.43 591.22
  L 599.88 591.22
  A 0.54 0.54 0.0 0 1 599.34 590.68
  L 599.34 583.72
  A 0.54 0.54 0.0 0 1 599.88 583.18
  L 610.12 583.18
  A 0.54 0.54 0.0 0 0 610.66 582.64
  L 610.66 581.30
  Z
  M 635.17 575.32
  Q 635.51 573.72 633.82 572.61
  Q 630.03 570.11 624.63 571.17
  C 620.95 571.89 618.05 575.19 619.24 579.04
  C 620.51 583.13 626.87 583.25 629.98 584.26
  C 633.12 585.27 634.42 589.51 630.88 590.74
  Q 625.04 592.75 621.16 588.80
  A 1.56 1.50 19.5 0 0 618.51 590.00
  Q 618.73 591.54 620.57 592.54
  Q 626.40 595.71 632.53 593.10
  C 638.10 590.72 637.37 582.92 631.27 581.74
  C 628.33 581.16 622.93 580.51 622.75 577.49
  Q 622.57 574.28 625.91 573.68
  Q 630.41 572.88 633.51 575.76
  A 1.02 0.96 28.4 0 0 635.17 575.32
  Z
  M 642.84 582.54
  C 642.86 590.55 648.86 595.17 656.73 593.79
  Q 660.82 593.07 662.75 589.96
  A 1.30 1.30 0.0 0 0 662.34 588.18
  L 662.25 588.13
  A 1.33 1.32 -56.9 0 0 660.43 588.52
  Q 658.67 591.16 654.89 591.38
  C 648.99 591.71 646.34 587.88 646.33 582.54
  C 646.32 577.19 648.96 573.35 654.85 573.66
  Q 658.63 573.87 660.41 576.50
  A 1.33 1.32 56.6 0 0 662.23 576.88
  L 662.31 576.82
  A 1.30 1.30 0.0 0 0 662.72 575.04
  Q 660.78 571.95 656.68 571.25
  C 648.81 569.89 642.83 574.54 642.84 582.54
  Z
  M 674.0254 571.8818
  A 0.82 0.82 0.0 0 0 673.2011 571.0661
  L 671.6611 571.0742
  A 0.82 0.82 0.0 0 0 670.8454 571.8985
  L 670.9546 592.7582
  A 0.82 0.82 0.0 0 0 671.7789 593.5739
  L 673.3189 593.5658
  A 0.82 0.82 0.0 0 0 674.1346 592.7415
  L 674.0254 571.8818
  Z
  M 723.60 593.37
  A 0.43 0.43 0.0 0 0 724.03 592.94
  L 724.03 583.99
  A 0.43 0.43 0.0 0 1 724.46 583.56
  L 734.67 583.56
  A 0.43 0.43 0.0 0 0 735.10 583.13
  L 735.10 581.73
  A 0.43 0.43 0.0 0 0 734.67 581.30
  L 724.45 581.30
  A 0.43 0.43 0.0 0 1 724.02 580.87
  L 724.02 573.93
  A 0.43 0.43 0.0 0 1 724.45 573.50
  L 735.73 573.50
  A 0.43 0.43 0.0 0 0 736.16 573.07
  L 736.16 571.73
  A 0.43 0.43 0.0 0 0 735.73 571.30
  L 721.81 571.30
  A 0.43 0.43 0.0 0 0 721.38 571.73
  L 721.38 592.94
  A 0.43 0.43 0.0 0 0 721.81 593.37
  L 723.60 593.37
  Z
  M 747.3908 572.2268
  A 1.23 1.23 0.0 0 0 746.1501 571.0076
  L 745.4901 571.0133
  A 1.23 1.23 0.0 0 0 744.2709 572.2540
  L 744.4492 592.6932
  A 1.23 1.23 0.0 0 0 745.6899 593.9124
  L 746.3499 593.9067
  A 1.23 1.23 0.0 0 0 747.5691 592.6660
  L 747.3908 572.2268
  Z
  M 777.9953 581.2195
  A 9.94 9.94 0.0 0 0 768.2479 571.0905
  L 766.3283 571.0537
  A 9.94 9.94 0.0 0 0 756.1993 580.8010
  L 756.1447 583.6405
  A 9.94 9.94 0.0 0 0 765.8921 593.7695
  L 767.8117 593.8063
  A 9.94 9.94 0.0 0 0 777.9407 584.0590
  L 777.9953 581.2195
  Z
  M 804.35 592.21
  L 798.77 583.92
  A 0.31 0.30 -33.8 0 1 798.86 583.51
  C 800.96 582.12 802.47 580.92 802.72 578.32
  C 803.25 572.92 798.74 570.83 793.87 571.08
  Q 793.23 571.11 786.79 571.05
  A 0.52 0.51 -0.3 0 0 786.28 571.56
  L 786.40 592.55
  A 1.07 1.07 0.0 0 0 787.48 593.61
  L 788.34 593.61
  A 0.95 0.94 89.7 0 0 789.28 592.65
  L 789.24 584.82
  A 0.64 0.64 0.0 0 1 789.87 584.18
  L 794.95 584.15
  A 1.14 1.12 74.4 0 1 795.93 584.72
  L 800.66 592.79
  A 1.69 1.69 0.0 0 0 802.14 593.64
  L 803.61 593.63
  A 0.91 0.91 0.0 0 0 804.35 592.21
  Z
  M 837.72 587.25
  C 837.72 591.94 831.57 591.31 828.51 590.80
  A 2.17 2.17 0.0 0 1 827.48 590.32
  Q 826.66 589.63 826.01 589.02
  A 1.63 1.53 -60.4 0 0 823.46 589.81
  Q 823.11 590.87 824.45 591.91
  Q 828.68 595.18 834.98 594.01
  C 841.61 592.78 844.15 584.57 836.84 582.03
  Q 836.19 581.80 829.85 579.88
  C 826.00 578.72 827.44 574.38 830.98 573.71
  Q 835.40 572.88 838.78 575.53
  A 1.07 1.06 4.6 0 0 840.37 574.18
  C 838.56 570.88 833.31 570.64 829.91 571.21
  C 825.80 571.91 823.30 575.38 824.76 579.51
  C 826.65 584.83 837.73 582.31 837.72 587.25
  Z
  M 847.79 582.68
  C 847.96 592.66 856.49 596.80 865.07 592.79
  Q 866.92 591.92 868.00 589.83
  A 1.61 1.60 30.6 0 0 867.46 587.76
  L 867.41 587.72
  A 1.47 1.46 33.9 0 0 865.39 588.11
  Q 863.62 590.71 861.01 591.05
  C 854.61 591.88 851.23 588.97 851.12 582.62
  C 851.01 576.28 854.28 573.25 860.71 573.85
  Q 863.33 574.10 865.19 576.63
  A 1.47 1.46 -35.9 0 0 867.22 576.95
  L 867.27 576.91
  A 1.61 1.60 -32.6 0 0 867.73 574.82
  Q 866.58 572.77 864.70 571.97
  C 855.98 568.27 847.61 572.71 847.79 582.68
  Z
  M 879.7259 572.1666
  A 1.11 1.11 0.0 0 0 878.6198 571.0527
  L 877.0998 571.0474
  A 1.11 1.11 0.0 0 0 875.9859 572.1535
  L 875.9141 592.7334
  A 1.11 1.11 0.0 0 0 877.0202 593.8473
  L 878.5402 593.8526
  A 1.11 1.11 0.0 0 0 879.6541 592.7465
  L 879.7259 572.1666
  Z
  M 425.9144 572.1985
  A 0.85 0.85 0.0 0 0 425.0689 571.3440
  L 423.5889 571.3363
  A 0.85 0.85 0.0 0 0 422.7345 572.1818
  L 422.6256 592.9815
  A 0.85 0.85 0.0 0 0 423.4711 593.8360
  L 424.9511 593.8437
  A 0.85 0.85 0.0 0 0 425.8055 592.9982
  L 425.9144 572.1985
  Z
  M 815.61 572.14
  A 0.96 0.96 0.0 0 0 814.65 571.18
  L 813.07 571.18
  A 0.96 0.96 0.0 0 0 812.11 572.14
  L 812.11 592.86
  A 0.96 0.96 0.0 0 0 813.07 593.82
  L 814.65 593.82
  A 0.96 0.96 0.0 0 0 815.61 592.86
  L 815.61 572.14
  Z
  M 518.9683 583.9316
  A 0.82 0.82 0.0 0 0 518.1455 583.1144
  L 509.2255 583.1456
  A 0.82 0.82 0.0 0 0 508.4084 583.9684
  L 508.4117 584.9084
  A 0.82 0.82 0.0 0 0 509.2345 585.7256
  L 518.1545 585.6944
  A 0.82 0.82 0.0 0 0 518.9716 584.8716
  L 518.9683 583.9316
  Z
  M 701.8592 584.0013
  A 0.76 0.76 0.0 0 0 701.0979 583.2427
  L 692.6779 583.2573
  A 0.76 0.76 0.0 0 0 691.9192 584.0187
  L 691.9208 584.9187
  A 0.76 0.76 0.0 0 0 692.6821 585.6773
  L 701.1021 585.6627
  A 0.76 0.76 0.0 0 0 701.8608 584.9013
  L 701.8592 584.0013
  Z"
/>
<path fill="#bade76" d="
  M 261.77 416.64
  Q 264.66 412.69 268.71 409.55
  Q 270.99 407.78 271.72 406.86
  C 276.83 400.38 276.85 397.12 269.92 392.39
  A 0.66 0.66 0.0 0 0 269.12 392.42
  C 258.91 400.57 246.27 406.30 233.33 402.99
  C 228.86 401.85 223.51 398.82 218.69 396.71
  Q 221.77 392.73 229.68 384.67
  Q 238.50 375.68 250.24 369.49
  A 0.34 0.33 30.9 0 0 250.08 368.86
  L 248.53 368.86
  A 0.70 0.63 29.7 0 0 248.25 368.92
  Q 236.08 374.42 229.95 378.43
  Q 207.60 393.04 195.74 418.23
  Q 188.75 433.08 186.97 447.90
  Q 182.82 451.69 177.58 450.76
  L 182.71 430.83
  A 2.08 2.04 42.8 0 0 182.65 429.64
  C 178.61 418.35 174.23 410.02 166.40 401.39
  C 162.40 396.99 155.35 393.42 150.52 390.64
  A 0.25 0.25 0.0 0 0 150.19 390.73
  L 150.19 390.74
  A 0.22 0.22 0.0 0 0 150.26 391.04
  Q 160.11 397.01 165.99 406.97
  C 160.54 411.73 155.03 411.14 148.36 410.32
  C 143.71 409.76 141.06 410.19 137.92 413.38
  Q 133.57 408.76 130.49 402.02
  Q 123.96 387.75 124.11 371.93
  A 0.49 0.49 0.0 0 1 124.66 371.45
  Q 130.37 372.21 139.49 373.11
  Q 144.29 373.58 152.98 375.63
  Q 160.77 377.46 165.82 380.21
  Q 178.21 386.97 183.42 399.82
  Q 183.63 400.34 183.92 400.47
  Q 184.44 400.70 184.54 400.16
  Q 185.73 393.71 188.56 386.50
  Q 197.58 363.57 218.95 351.11
  Q 219.76 350.63 227.01 347.37
  Q 231.86 345.19 235.37 344.21
  Q 252.21 339.52 262.76 338.82
  C 277.21 337.86 288.37 336.97 300.81 333.41
  A 0.76 0.76 0.0 0 1 301.78 334.15
  C 301.69 341.20 301.59 347.05 300.38 354.24
  Q 297.57 371.09 290.21 386.73
  Q 288.48 390.41 284.10 396.54
  Q 275.12 409.11 261.77 416.64
  Z"
/>
<path fill="#5eb859" d="
  M 261.77 416.64
  C 246.09 425.04 228.86 426.90 211.69 423.84
  Q 208.55 423.28 206.08 421.93
  A 0.98 0.98 0.0 0 1 205.64 420.70
  Q 210.85 408.09 218.69 396.71
  C 223.51 398.82 228.86 401.85 233.33 402.99
  C 246.27 406.30 258.91 400.57 269.12 392.42
  A 0.66 0.66 0.0 0 1 269.92 392.39
  C 276.85 397.12 276.83 400.38 271.72 406.86
  Q 270.99 407.78 268.71 409.55
  Q 264.66 412.69 261.77 416.64
  Z"
/>
<path fill="#5eb859" d="
  M 137.92 413.38
  C 141.06 410.19 143.71 409.76 148.36 410.32
  C 155.03 411.14 160.54 411.73 165.99 406.97
  Q 169.93 411.87 171.27 415.74
  Q 172.37 418.92 173.73 421.79
  A 0.87 0.86 -20.7 0 1 173.18 423.00
  C 160.15 426.73 147.63 423.17 137.92 413.38
  Z"
/>
<path fill="#bade76" d="
  M 89.16 506.95
  L 88.85 510.07
  A 0.51 0.51 0.0 0 1 88.33 510.53
  L 77.26 510.27
  Q 77.43 485.70 77.22 461.08
  Q 77.17 455.01 77.75 452.96
  C 79.19 447.89 82.29 442.43 87.24 439.88
  C 92.78 437.01 97.89 436.95 104.50 436.92
  Q 127.52 436.85 162.25 436.94
  Q 164.84 436.95 166.22 438.35
  A 1.73 1.73 0.0 0 1 166.69 439.78
  L 165.72 446.90
  A 2.55 2.54 89.7 0 1 163.58 449.07
  Q 162.41 449.25 159.75 449.28
  Q 151.50 449.37 103.42 449.31
  C 96.66 449.30 92.93 449.61 90.04 455.04
  Q 89.17 456.67 89.16 461.10
  Q 89.12 484.04 89.16 506.95
  Z"
/>
<path fill="#bade76" d="
  M 266.92 518.70
  L 266.61 520.57
  A 0.52 0.52 0.0 0 1 265.92 520.98
  L 255.55 517.20
  A 0.75 0.73 -81.2 0 1 255.07 516.53
  L 254.83 510.79
  Q 254.57 487.00 254.76 463.18
  Q 254.81 456.46 253.63 454.64
  C 250.65 450.01 246.40 449.39 240.58 449.40
  Q 240.42 449.40 203.50 449.37
  C 201.66 449.36 199.35 448.70 199.91 446.37
  Q 200.72 442.99 202.30 438.34
  A 2.20 2.20 0.0 0 1 204.41 436.84
  Q 223.97 437.05 240.00 436.81
  C 243.55 436.76 248.12 436.68 251.55 437.76
  Q 261.90 441.02 265.45 450.49
  Q 266.88 454.29 266.90 464.22
  Q 266.96 491.47 266.92 518.70
  Z"
/>
<path fill="#fefefe" d="
  M 434.70 458.16
  C 434.56 460.85 432.28 462.04 429.72 462.00
  Q 419.81 461.85 415.91 461.70
  A 1.58 1.52 65.1 0 1 414.98 461.34
  C 411.97 458.77 412.50 449.84 413.07 447.72
  C 414.42 442.74 420.41 443.12 424.71 443.13
  C 428.91 443.14 432.15 442.89 434.56 445.82
  A 1.42 1.36 26.3 0 1 434.88 446.70
  Q 434.94 453.61 434.70 458.16
  Z"
/>
<rect fill="#fefefe" x="-10.80" y="-9.36" transform="translate(601.06,452.72) rotate(0.4)" width="21.60" height="18.72" rx="4.75"/>
<path fill="#fefefe" d="
  M 361.35 509.67
  Q 361.52 509.67 361.65 509.57
  A 0.39 0.32 -14.8 0 0 361.74 509.44
  L 385.18 445.13
  A 0.59 0.58 -80.0 0 1 385.73 444.74
  L 407.28 444.74
  A 0.64 0.63 -79.3 0 1 407.87 445.61
  L 374.16 532.26
  A 0.94 0.93 -79.8 0 1 373.33 532.84
  Q 367.26 532.99 361.39 533.00
  Q 355.52 533.01 349.46 532.88
  A 0.94 0.93 79.6 0 1 348.62 532.30
  L 314.62 445.77
  A 0.64 0.63 79.1 0 1 315.20 444.90
  L 336.75 444.82
  A 0.59 0.58 79.8 0 1 337.31 445.21
  L 360.96 509.44
  A 0.39 0.32 14.6 0 0 361.06 509.57
  Q 361.19 509.67 361.35 509.67
  Z"
/>
<path fill="#bade76" d="
  M 699.22 533.03
  A 0.72 0.72 0.0 0 1 698.55 532.04
  L 732.30 445.31
  A 0.65 0.65 0.0 0 1 732.91 444.89
  L 758.18 444.89
  A 0.85 0.84 -9.7 0 1 758.98 445.45
  C 762.44 455.35 766.92 465.83 770.25 474.62
  Q 780.68 502.17 790.85 527.14
  Q 792.03 530.04 793.35 532.14
  A 0.52 0.52 0.0 0 1 792.91 532.93
  L 770.76 532.93
  A 0.66 0.66 0.0 0 1 770.14 532.50
  L 763.91 515.18
  A 0.85 0.84 -9.7 0 0 763.11 514.62
  L 727.79 514.62
  A 0.34 0.34 0.0 0 0 727.47 514.85
  L 721.13 532.23
  A 1.21 1.21 0.0 0 1 719.99 533.03
  L 699.22 533.03
  Z
  M 733.60 498.60
  A 0.34 0.34 0.0 0 0 733.92 499.05
  L 757.08 498.93
  A 0.34 0.34 0.0 0 0 757.39 498.47
  L 745.65 466.77
  A 0.34 0.34 0.0 0 0 745.01 466.78
  L 733.60 498.60
  Z"
/>
<path fill="#5eb859" d="
  M 186.97 447.90
  Q 185.60 463.61 185.91 479.25
  Q 185.97 482.43 187.15 487.95
  A 1.87 1.86 61.4 0 1 186.65 489.67
  L 178.70 497.62
  A 0.88 0.88 0.0 0 1 177.22 497.18
  Q 176.94 495.88 176.90 493.88
  C 176.62 481.77 175.27 465.01 177.58 450.76
  Q 182.82 451.69 186.97 447.90
  Z"
/>
<path fill="#bade76" d="
  M 197.38 517.53
  Q 189.52 513.27 181.29 510.49
  L 223.67 467.99
  A 4.03 4.01 -83.0 0 1 224.42 467.40
  C 232.40 462.58 240.01 470.77 236.33 478.91
  Q 235.93 479.79 234.08 481.56
  Q 215.48 499.30 197.38 517.53
  Z"
/>
<path fill="#2d4c1c" d="
  M 733.60 498.60
  L 745.01 466.78
  A 0.34 0.34 0.0 0 1 745.65 466.77
  L 757.39 498.47
  A 0.34 0.34 0.0 0 1 757.08 498.93
  L 733.92 499.05
  A 0.34 0.34 0.0 0 1 733.60 498.60
  Z"
/>
<path fill="#bade76" d="
  M 876.38 558.66
  L 876.17 470.51
  A 0.79 0.78 -0.1 0 1 876.96 469.73
  L 895.49 469.68
  A 0.54 0.54 0.0 0 1 896.03 470.22
  L 896.04 476.97
  A 0.64 0.64 0.0 0 0 897.22 477.33
  C 901.50 471.04 907.59 468.17 915.32 467.89
  C 932.50 467.27 942.94 478.99 944.57 495.17
  C 946.22 511.52 941.06 530.69 922.38 534.30
  C 913.52 536.00 902.70 534.11 897.17 526.47
  A 0.39 0.38 27.1 0 0 896.47 526.70
  L 896.54 558.46
  A 0.79 0.79 0.0 0 1 895.75 559.25
  L 877.03 559.30
  A 0.65 0.64 -0.1 0 1 876.38 558.66
  Z
  M 896.23 501.52
  C 896.30 510.47 899.45 519.82 910.26 519.74
  C 921.07 519.66 924.08 510.26 924.02 501.31
  C 923.95 492.36 920.80 483.01 909.99 483.09
  C 899.17 483.17 896.16 492.57 896.23 501.52
  Z"
/>
<path fill="#fefefe" d="
  M 559.77 525.98
  Q 554.55 532.61 546.36 534.22
  C 529.16 537.60 512.12 528.79 516.37 508.53
  C 518.39 498.92 528.43 494.09 537.33 493.18
  Q 548.70 492.01 558.90 493.79
  A 0.57 0.57 0.0 0 0 559.57 493.23
  C 559.55 482.80 550.57 481.16 542.24 481.64
  Q 532.55 482.19 523.16 486.53
  A 0.87 0.86 77.7 0 1 521.94 485.74
  L 521.94 473.77
  A 1.58 1.57 -10.6 0 1 522.95 472.30
  Q 535.18 467.61 550.33 467.97
  C 563.16 468.28 574.75 472.35 578.47 484.77
  Q 579.66 488.76 579.66 498.80
  Q 579.66 528.52 579.63 532.24
  A 0.68 0.67 -89.6 0 1 578.96 532.91
  L 561.15 532.91
  A 0.73 0.72 -90.0 0 1 560.43 532.18
  L 560.43 526.21
  A 0.37 0.37 0.0 0 0 559.77 525.98
  Z
  M 560.07 506.95
  A 0.90 0.90 0.0 0 0 559.42 506.07
  C 553.01 504.24 536.24 502.32 535.75 512.72
  C 535.51 517.74 539.08 520.97 543.94 521.60
  C 553.69 522.85 559.98 516.64 560.07 506.95
  Z"
/>
<path fill="#fefefe" d="
  M 657.86 467.98
  Q 665.29 467.99 670.83 469.56
  C 685.73 473.79 694.31 485.85 694.29 501.46
  C 694.27 517.08 685.66 529.11 670.75 533.31
  Q 665.21 534.87 657.77 534.86
  Q 650.34 534.85 644.80 533.28
  C 629.90 529.05 621.32 516.99 621.34 501.38
  C 621.36 485.76 629.97 473.73 644.88 469.53
  Q 650.42 467.97 657.86 467.98
  Z
  M 642.60 501.02
  C 642.36 510.88 646.29 520.03 657.39 520.30
  C 668.50 520.56 672.85 511.61 673.08 501.75
  C 673.32 491.89 669.39 482.74 658.29 482.48
  C 647.18 482.21 642.83 491.16 642.60 501.02
  Z"
/>
<path fill="#bade76" d="
  M 798.11 558.51
  L 798.11 470.51
  A 0.79 0.78 0.0 0 1 798.90 469.73
  L 817.40 469.73
  A 0.54 0.54 0.0 0 1 817.94 470.27
  L 817.94 477.01
  A 0.64 0.64 0.0 0 0 819.11 477.37
  C 823.40 471.10 829.49 468.25 837.20 467.99
  C 854.36 467.41 864.75 479.14 866.34 495.29
  C 867.95 511.62 862.75 530.74 844.09 534.30
  C 835.24 535.98 824.45 534.07 818.94 526.43
  A 0.39 0.38 27.2 0 0 818.24 526.65
  L 818.24 558.36
  A 0.79 0.79 0.0 0 1 817.45 559.15
  L 798.76 559.15
  A 0.65 0.64 -0.0 0 1 798.11 558.51
  Z
  M 817.97 501.33
  C 817.91 510.23 820.92 519.59 831.68 519.65
  C 842.45 519.72 845.57 510.40 845.62 501.49
  C 845.67 492.59 842.67 483.24 831.90 483.17
  C 821.14 483.11 818.02 492.42 817.97 501.33
  Z"
/>
<rect fill="#fefefe" x="-9.90" y="-31.58" transform="translate(601.39,501.35) rotate(-0.1)" width="19.80" height="63.16" rx="0.89"/>
<rect fill="#fefefe" x="414.23" y="469.87" width="19.94" height="63.10" rx="0.82"/>
<path fill="#fefefe" d="
  M 477.35 511.74
  Q 477.51 511.74 477.64 511.64
  A 0.22 0.21 -7.9 0 0 477.70 511.57
  L 493.35 470.21
  A 0.70 0.70 0.0 0 1 494.01 469.75
  L 513.63 469.75
  A 0.58 0.58 0.0 0 1 514.17 470.55
  L 488.51 532.26
  A 1.08 1.08 0.0 0 1 487.51 532.93
  Q 485.90 532.95 477.34 532.95
  Q 468.78 532.94 467.16 532.92
  A 1.08 1.08 0.0 0 1 466.17 532.25
  L 440.56 470.52
  A 0.58 0.58 0.0 0 1 441.11 469.72
  L 460.73 469.73
  A 0.70 0.70 0.0 0 1 461.38 470.20
  L 477.00 511.57
  A 0.22 0.21 8.0 0 0 477.05 511.64
  Q 477.19 511.74 477.35 511.74
  Z"
/>
<path fill="#bade76" d="
  M 114.85 474.83
  L 114.85 474.60
  A 4.00 4.00 0.0 0 1 118.94 470.48
  Q 138.37 470.93 153.71 470.15
  Q 156.93 469.98 157.84 470.57
  C 159.50 471.65 161.93 474.09 160.80 476.36
  Q 158.72 480.53 153.85 479.95
  Q 146.57 479.07 138.46 478.16
  A 5.22 4.54 -39.5 0 0 137.69 478.14
  L 119.35 479.02
  A 4.30 4.29 -2.0 0 1 114.85 474.83
  Z"
/>
<path fill="#2d4c1c" d="
  M 658.29 482.48
  C 669.39 482.74 673.32 491.89 673.08 501.75
  C 672.85 511.61 668.50 520.56 657.39 520.30
  C 646.29 520.03 642.36 510.88 642.60 501.02
  C 642.83 491.16 647.18 482.21 658.29 482.48
  Z"
/>
<path fill="#2d4c1c" d="
  M 817.97 501.33
  C 818.02 492.42 821.14 483.11 831.90 483.17
  C 842.67 483.24 845.67 492.59 845.62 501.49
  C 845.57 510.40 842.45 519.72 831.68 519.65
  C 820.92 519.59 817.91 510.23 817.97 501.33
  Z"
/>
<path fill="#2d4c1c" d="
  M 909.99 483.09
  C 920.80 483.01 923.95 492.36 924.02 501.31
  C 924.08 510.26 921.07 519.66 910.26 519.74
  C 899.45 519.82 896.30 510.47 896.23 501.52
  C 896.16 492.57 899.17 483.17 909.99 483.09
  Z"
/>
<path fill="#2d4c1c" d="
  M 560.07 506.95
  C 559.98 516.64 553.69 522.85 543.94 521.60
  C 539.08 520.97 535.51 517.74 535.75 512.72
  C 536.24 502.32 553.01 504.24 559.42 506.07
  A 0.90 0.90 0.0 0 1 560.07 506.95
  Z"
/>
<path fill="#5eb859" d="
  M 89.16 506.95
  Q 89.58 537.61 89.27 568.25
  C 89.22 573.45 89.30 578.25 94.35 580.66
  C 95.53 581.22 99.08 581.61 100.91 581.54
  Q 102.58 581.48 133.63 581.20
  C 158.26 580.98 187.58 581.71 208.00 581.38
  Q 231.66 580.98 245.01 581.50
  A 2.99 2.88 -50.8 0 0 245.84 581.40
  Q 253.09 579.46 254.67 572.71
  A 4.92 4.73 -39.5 0 0 254.80 571.60
  L 254.83 510.79
  L 255.07 516.53
  A 0.75 0.73 -81.2 0 0 255.55 517.20
  L 265.92 520.98
  A 0.52 0.52 0.0 0 0 266.61 520.57
  L 266.92 518.70
  Q 266.96 543.96 266.75 569.20
  Q 266.69 576.75 265.35 580.24
  Q 261.95 589.10 253.16 592.62
  Q 249.17 594.22 242.18 594.13
  C 234.75 594.04 224.67 594.47 215.28 594.22
  C 196.39 593.73 176.13 594.47 158.07 594.31
  Q 133.84 594.11 96.75 593.84
  C 87.74 593.78 80.91 587.93 78.02 579.72
  Q 77.08 577.05 77.10 570.67
  Q 77.21 540.49 77.26 510.27
  L 88.33 510.53
  A 0.51 0.51 0.0 0 0 88.85 510.07
  L 89.16 506.95
  Z"
/>
<path fill="#bade76" d="
  M 151.04 525.72
  L 133.69 533.09
  L 122.78 522.31
  A 2.02 1.95 13.0 0 1 122.33 521.62
  Q 121.00 518.05 123.04 515.37
  C 125.23 512.48 129.98 508.94 134.04 510.15
  Q 135.46 510.56 138.18 513.32
  Q 144.43 519.67 151.04 525.72
  Z"
/>
<path fill="#5eb859" d="
  M 197.38 517.53
  Q 184.84 530.04 172.35 542.59
  C 168.90 546.06 165.16 552.08 159.88 553.34
  Q 154.98 554.51 151.55 550.97
  Q 142.77 541.89 133.69 533.09
  L 151.04 525.72
  L 157.64 532.26
  A 0.93 0.93 0.0 0 0 158.95 532.27
  L 181.29 510.49
  Q 189.52 513.27 197.38 517.53
  Z"
/>
<path fill="#5eb859" d="
  M 224.61 552.26
  A 1.55 1.55 0.0 0 0 225.39 551.38
  Q 226.13 549.32 226.28 548.78
  C 227.77 543.60 232.31 548.08 233.41 550.41
  A 2.86 2.72 29.5 0 1 233.65 551.20
  Q 234.97 559.84 226.51 560.69
  C 219.67 561.38 211.70 561.55 203.18 561.13
  Q 196.70 560.82 188.50 560.80
  C 186.54 560.80 183.00 558.91 184.12 556.42
  C 186.39 551.38 191.60 552.79 195.86 553.68
  A 9.37 8.96 -37.7 0 0 197.77 553.88
  Q 211.17 553.85 217.75 553.82
  Q 221.48 553.81 224.61 552.26
  Z"
/>
<path fill="#bade76" d="
  M 461.88 582.53
  C 461.88 585.80 462.91 588.46 465.50 590.35
  A 3.21 3.11 70.9 0 0 466.36 590.78
  Q 472.58 592.79 476.25 587.96
  A 1.16 1.12 36.5 0 1 477.82 587.75
  Q 478.60 588.31 478.29 589.37
  C 476.93 594.10 469.88 594.83 465.94 593.71
  C 460.64 592.19 458.53 587.91 458.52 582.54
  C 458.51 577.17 460.60 572.88 465.90 571.34
  C 469.83 570.20 476.88 570.90 478.26 575.62
  Q 478.57 576.68 477.80 577.25
  A 1.16 1.12 -36.7 0 1 476.23 577.04
  Q 472.53 572.23 466.32 574.27
  A 3.21 3.11 -71.2 0 0 465.47 574.70
  C 462.89 576.60 461.87 579.27 461.88 582.53
  Z"
/>
<path fill="#bade76" d="
  M 338.26 585.26
  A 1.21 1.21 0.0 0 0 336.82 584.07
  Q 331.13 585.18 331.94 582.70
  Q 332.26 581.72 333.34 581.68
  Q 337.30 581.55 340.84 581.70
  A 0.74 0.73 -88.8 0 1 341.54 582.44
  L 341.54 590.30
  A 1.49 1.49 0.0 0 1 341.30 591.11
  Q 340.46 592.43 338.42 593.21
  C 331.00 596.02 321.14 593.08 320.63 583.93
  C 320.23 576.75 323.88 571.39 331.47 571.02
  Q 337.26 570.74 340.65 574.22
  A 1.02 1.01 -46.7 0 1 340.69 575.60
  L 340.67 575.62
  A 0.95 0.95 0.0 0 1 339.38 575.76
  Q 335.66 573.01 331.72 573.32
  Q 325.41 573.82 324.08 578.73
  Q 322.57 584.33 325.41 588.38
  Q 328.50 592.79 336.60 591.05
  A 2.09 2.08 -6.0 0 0 338.26 589.01
  L 338.26 585.26
  Z"
/>
<path fill="#bade76" d="
  M 353.49 579.93
  A 0.81 0.81 0.0 0 0 354.29 580.75
  L 363.90 580.82
  A 0.99 0.98 88.5 0 1 364.88 581.76
  L 364.89 582.05
  A 1.11 1.11 0.0 0 1 363.78 583.19
  L 354.25 583.22
  A 0.75 0.74 -89.6 0 0 353.51 583.96
  L 353.48 590.55
  A 0.76 0.76 0.0 0 0 354.25 591.30
  L 365.03 591.12
  A 1.19 1.18 -88.4 0 1 366.23 592.39
  L 366.23 592.60
  A 1.34 1.34 0.0 0 1 364.90 593.92
  L 350.73 593.88
  A 0.58 0.58 0.0 0 1 350.15 593.30
  L 350.43 571.91
  A 0.76 0.76 0.0 0 1 351.19 571.16
  L 364.66 571.04
  A 1.23 1.23 0.0 0 1 365.90 572.29
  L 365.90 572.48
  A 1.25 1.25 0.0 0 1 364.63 573.72
  L 354.31 573.58
  A 0.79 0.79 0.0 0 0 353.51 574.36
  L 353.49 579.93
  Z"
/>
<path fill="#bade76" d="
  M 389.30 573.69
  A 1.17 1.17 0.0 0 1 387.81 575.46
  Q 384.55 573.34 380.47 573.74
  Q 377.91 574.00 377.05 575.58
  C 376.09 577.37 377.07 579.17 378.83 579.63
  C 382.82 580.67 391.88 581.95 390.83 588.12
  Q 390.26 591.49 387.28 592.95
  C 382.90 595.10 376.52 594.92 373.09 590.76
  A 1.38 1.37 -41.2 0 1 373.23 588.87
  L 373.28 588.83
  A 1.39 1.38 46.2 0 1 375.19 588.87
  Q 378.00 591.69 382.96 591.11
  Q 385.09 590.86 385.76 590.39
  C 388.16 588.68 387.72 585.91 384.97 584.68
  C 382.28 583.46 374.42 583.28 373.70 578.27
  C 372.45 569.46 385.46 569.54 389.30 573.69
  Z"
/>
<path fill="#bade76" d="
  M 405.71 571.18
  Q 409.66 571.17 413.95 571.17
  A 1.15 1.15 0.0 0 1 415.10 572.32
  L 415.10 572.68
  A 1.09 1.09 0.0 0 1 414.01 573.77
  L 407.94 573.77
  A 0.73 0.73 0.0 0 0 407.21 574.49
  L 407.07 593.04
  A 0.71 0.69 79.5 0 1 406.65 593.67
  Q 406.57 593.71 405.72 593.71
  Q 404.86 593.71 404.78 593.67
  A 0.71 0.69 -79.5 0 1 404.36 593.04
  L 404.22 574.49
  A 0.73 0.73 0.0 0 0 403.49 573.77
  L 397.42 573.77
  A 1.09 1.09 0.0 0 1 396.33 572.68
  L 396.33 572.32
  A 1.15 1.15 0.0 0 1 397.47 571.18
  Q 401.77 571.17 405.71 571.18
  Z"
/>
<path fill="#bade76" d="
  M 450.45 573.66
  A 1.18 1.18 0.0 0 1 448.94 575.44
  Q 445.67 573.30 441.56 573.69
  Q 438.99 573.94 438.12 575.53
  C 437.15 577.32 438.13 579.14 439.89 579.60
  C 443.90 580.66 453.01 581.98 451.94 588.18
  Q 451.35 591.57 448.35 593.03
  C 443.94 595.18 437.52 594.98 434.09 590.78
  A 1.39 1.38 -41.0 0 1 434.23 588.88
  L 434.28 588.84
  A 1.39 1.39 0.0 0 1 436.20 588.89
  Q 439.02 591.73 444.01 591.16
  Q 446.16 590.92 446.83 590.45
  C 449.25 588.74 448.82 585.95 446.06 584.70
  C 443.35 583.47 435.45 583.26 434.74 578.22
  C 433.51 569.35 446.60 569.48 450.45 573.66
  Z"
/>
<rect fill="#bade76" x="-1.61" y="-11.38" transform="translate(488.17,582.50) rotate(0.2)" width="3.22" height="22.76" rx="0.98"/>
<path fill="#bade76" d="
  M 545.20 582.51
  C 545.23 587.93 547.92 591.80 553.89 591.44
  Q 557.72 591.21 559.50 588.53
  A 1.35 1.33 -57.0 0 1 561.34 588.13
  L 561.43 588.19
  A 1.32 1.31 -58.2 0 1 561.85 589.99
  Q 559.91 593.14 555.77 593.88
  C 547.80 595.31 541.70 590.64 541.66 582.53
  C 541.63 574.42 547.68 569.69 555.66 571.05
  Q 559.81 571.75 561.78 574.88
  A 1.32 1.31 57.7 0 1 561.37 576.68
  L 561.29 576.74
  A 1.35 1.33 56.5 0 1 559.44 576.36
  Q 557.64 573.70 553.81 573.50
  C 547.83 573.20 545.17 577.10 545.20 582.51
  Z"
/>
<path fill="#bade76" d="
  M 588.56 592.49
  A 0.92 0.91 73.2 0 1 587.80 593.91
  L 586.32 593.91
  A 1.70 1.70 0.0 0 1 584.84 593.05
  L 580.12 584.89
  A 1.14 1.13 74.7 0 0 579.14 584.32
  L 574.02 584.32
  A 0.64 0.64 0.0 0 0 573.38 584.96
  L 573.38 592.84
  A 0.96 0.95 -90.0 0 1 572.43 593.80
  L 571.56 593.80
  A 1.08 1.08 0.0 0 1 570.48 592.72
  L 570.48 571.59
  A 0.52 0.51 0.0 0 1 571.00 571.08
  Q 577.48 571.18 578.13 571.15
  C 583.03 570.93 587.56 573.06 587.00 578.49
  C 586.73 581.11 585.20 582.31 583.08 583.69
  A 0.31 0.31 0.0 0 0 582.99 584.11
  L 588.56 592.49
  Z
  M 573.26 574.48
  L 573.26 580.96
  A 0.96 0.96 0.0 0 0 574.22 581.92
  L 579.72 581.92
  A 4.16 4.08 -0.0 0 0 583.88 577.84
  L 583.88 577.60
  A 4.16 4.08 -0.0 0 0 579.72 573.52
  L 574.22 573.52
  A 0.96 0.96 0.0 0 0 573.26 574.48
  Z"
/>
<path fill="#bade76" d="
  M 610.66 581.30
  L 610.66 582.64
  A 0.54 0.54 0.0 0 1 610.12 583.18
  L 599.88 583.18
  A 0.54 0.54 0.0 0 0 599.34 583.72
  L 599.34 590.68
  A 0.54 0.54 0.0 0 0 599.88 591.22
  L 611.43 591.22
  A 0.54 0.54 0.0 0 1 611.97 591.76
  L 611.97 593.36
  A 0.54 0.54 0.0 0 1 611.43 593.90
  L 596.65 593.90
  A 0.54 0.54 0.0 0 1 596.11 593.36
  L 596.11 571.60
  A 0.54 0.54 0.0 0 1 596.65 571.06
  L 611.08 571.06
  A 0.54 0.54 0.0 0 1 611.62 571.60
  L 611.62 573.05
  A 0.54 0.54 0.0 0 1 611.08 573.59
  L 599.88 573.59
  A 0.54 0.54 0.0 0 0 599.34 574.13
  L 599.34 580.22
  A 0.54 0.54 0.0 0 0 599.88 580.76
  L 610.12 580.76
  A 0.54 0.54 0.0 0 1 610.66 581.30
  Z"
/>
<path fill="#bade76" d="
  M 635.17 575.32
  A 1.02 0.96 28.4 0 1 633.51 575.76
  Q 630.41 572.88 625.91 573.68
  Q 622.57 574.28 622.75 577.49
  C 622.93 580.51 628.33 581.16 631.27 581.74
  C 637.37 582.92 638.10 590.72 632.53 593.10
  Q 626.40 595.71 620.57 592.54
  Q 618.73 591.54 618.51 590.00
  A 1.56 1.50 19.5 0 1 621.16 588.80
  Q 625.04 592.75 630.88 590.74
  C 634.42 589.51 633.12 585.27 629.98 584.26
  C 626.87 583.25 620.51 583.13 619.24 579.04
  C 618.05 575.19 620.95 571.89 624.63 571.17
  Q 630.03 570.11 633.82 572.61
  Q 635.51 573.72 635.17 575.32
  Z"
/>
<path fill="#bade76" d="
  M 642.84 582.54
  C 642.83 574.54 648.81 569.89 656.68 571.25
  Q 660.78 571.95 662.72 575.04
  A 1.30 1.30 0.0 0 1 662.31 576.82
  L 662.23 576.88
  A 1.33 1.32 56.6 0 1 660.41 576.50
  Q 658.63 573.87 654.85 573.66
  C 648.96 573.35 646.32 577.19 646.33 582.54
  C 646.34 587.88 648.99 591.71 654.89 591.38
  Q 658.67 591.16 660.43 588.52
  A 1.33 1.32 -56.9 0 1 662.25 588.13
  L 662.34 588.18
  A 1.30 1.30 0.0 0 1 662.75 589.96
  Q 660.82 593.07 656.73 593.79
  C 648.86 595.17 642.86 590.55 642.84 582.54
  Z"
/>
<rect fill="#bade76" x="-1.59" y="-11.25" transform="translate(672.49,582.32) rotate(-0.3)" width="3.18" height="22.50" rx="0.82"/>
<path fill="#bade76" d="
  M 723.60 593.37
  L 721.81 593.37
  A 0.43 0.43 0.0 0 1 721.38 592.94
  L 721.38 571.73
  A 0.43 0.43 0.0 0 1 721.81 571.30
  L 735.73 571.30
  A 0.43 0.43 0.0 0 1 736.16 571.73
  L 736.16 573.07
  A 0.43 0.43 0.0 0 1 735.73 573.50
  L 724.45 573.50
  A 0.43 0.43 0.0 0 0 724.02 573.93
  L 724.02 580.87
  A 0.43 0.43 0.0 0 0 724.45 581.30
  L 734.67 581.30
  A 0.43 0.43 0.0 0 1 735.10 581.73
  L 735.10 583.13
  A 0.43 0.43 0.0 0 1 734.67 583.56
  L 724.46 583.56
  A 0.43 0.43 0.0 0 0 724.03 583.99
  L 724.03 592.94
  A 0.43 0.43 0.0 0 1 723.60 593.37
  Z"
/>
<rect fill="#bade76" x="-1.56" y="-11.45" transform="translate(745.92,582.46) rotate(-0.5)" width="3.12" height="22.90" rx="1.23"/>
<path fill="#bade76" d="
  M 777.9407 584.0590
  A 9.94 9.94 0.0 0 1 767.8117 593.8063
  L 765.8921 593.7695
  A 9.94 9.94 0.0 0 1 756.1447 583.6405
  L 756.1993 580.8010
  A 9.94 9.94 0.0 0 1 766.3283 571.0537
  L 768.2479 571.0905
  A 9.94 9.94 0.0 0 1 777.9953 581.2195
  L 777.9407 584.0590
  Z
  M 774.9079 581.1996
  A 7.20 7.20 0.0 0 0 768.1875 573.5500
  L 766.9102 573.4674
  A 7.20 7.20 0.0 0 0 759.2606 580.1878
  L 759.0321 583.7204
  A 7.20 7.20 0.0 0 0 765.7525 591.3700
  L 767.0298 591.4526
  A 7.20 7.20 0.0 0 0 774.6794 584.7322
  L 774.9079 581.1996
  Z"
/>
<path fill="#bade76" d="
  M 804.35 592.21
  A 0.91 0.91 0.0 0 1 803.61 593.63
  L 802.14 593.64
  A 1.69 1.69 0.0 0 1 800.66 592.79
  L 795.93 584.72
  A 1.14 1.12 74.4 0 0 794.95 584.15
  L 789.87 584.18
  A 0.64 0.64 0.0 0 0 789.24 584.82
  L 789.28 592.65
  A 0.95 0.94 89.7 0 1 788.34 593.61
  L 787.48 593.61
  A 1.07 1.07 0.0 0 1 786.40 592.55
  L 786.28 571.56
  A 0.52 0.51 -0.3 0 1 786.79 571.05
  Q 793.23 571.11 793.87 571.08
  C 798.74 570.83 803.25 572.92 802.72 578.32
  C 802.47 580.92 800.96 582.12 798.86 583.51
  A 0.31 0.30 -33.8 0 0 798.77 583.92
  L 804.35 592.21
  Z
  M 789.30 574.23
  L 789.40 581.31
  A 0.46 0.46 0.0 0 0 789.87 581.77
  L 795.82 581.68
  A 3.95 3.85 -0.8 0 0 799.71 577.78
  L 799.71 577.48
  A 3.95 3.85 -0.8 0 0 795.70 573.68
  L 789.75 573.77
  A 0.46 0.46 0.0 0 0 789.30 574.23
  Z"
/>
<path fill="#bade76" d="
  M 837.72 587.25
  C 837.73 582.31 826.65 584.83 824.76 579.51
  C 823.30 575.38 825.80 571.91 829.91 571.21
  C 833.31 570.64 838.56 570.88 840.37 574.18
  A 1.07 1.06 4.6 0 1 838.78 575.53
  Q 835.40 572.88 830.98 573.71
  C 827.44 574.38 826.00 578.72 829.85 579.88
  Q 836.19 581.80 836.84 582.03
  C 844.15 584.57 841.61 592.78 834.98 594.01
  Q 828.68 595.18 824.45 591.91
  Q 823.11 590.87 823.46 589.81
  A 1.63 1.53 -60.4 0 1 826.01 589.02
  Q 826.66 589.63 827.48 590.32
  A 2.17 2.17 0.0 0 0 828.51 590.80
  C 831.57 591.31 837.72 591.94 837.72 587.25
  Z"
/>
<path fill="#bade76" d="
  M 851.12 582.62
  C 851.23 588.97 854.61 591.88 861.01 591.05
  Q 863.62 590.71 865.39 588.11
  A 1.47 1.46 33.9 0 1 867.41 587.72
  L 867.46 587.76
  A 1.61 1.60 30.6 0 1 868.00 589.83
  Q 866.92 591.92 865.07 592.79
  C 856.49 596.80 847.96 592.66 847.79 582.68
  C 847.61 572.71 855.98 568.27 864.70 571.97
  Q 866.58 572.77 867.73 574.82
  A 1.61 1.60 -32.6 0 1 867.27 576.91
  L 867.22 576.95
  A 1.47 1.46 -35.9 0 1 865.19 576.63
  Q 863.33 574.10 860.71 573.85
  C 854.28 573.25 851.01 576.28 851.12 582.62
  Z"
/>
<rect fill="#bade76" x="-1.87" y="-11.40" transform="translate(877.82,582.45) rotate(0.2)" width="3.74" height="22.80" rx="1.11"/>
<rect fill="#bade76" x="-1.59" y="-11.25" transform="translate(424.27,582.59) rotate(0.3)" width="3.18" height="22.50" rx="0.85"/>
<rect fill="#bade76" x="812.11" y="571.18" width="3.50" height="22.64" rx="0.96"/>
<path fill="#2d4c1c" d="
  M 573.26 574.48
  A 0.96 0.96 0.0 0 1 574.22 573.52
  L 579.72 573.52
  A 4.16 4.08 0.0 0 1 583.88 577.60
  L 583.88 577.84
  A 4.16 4.08 0.0 0 1 579.72 581.92
  L 574.22 581.92
  A 0.96 0.96 0.0 0 1 573.26 580.96
  L 573.26 574.48
  Z"
/>
<rect fill="#2d4c1c" x="-7.84" y="-8.97" transform="translate(766.97,582.46) rotate(3.7)" width="15.68" height="17.94" rx="7.20"/>
<path fill="#2d4c1c" d="
  M 789.30 574.23
  A 0.46 0.46 0.0 0 1 789.75 573.77
  L 795.70 573.68
  A 3.95 3.85 -0.8 0 1 799.71 577.48
  L 799.71 577.78
  A 3.95 3.85 -0.8 0 1 795.82 581.68
  L 789.87 581.77
  A 0.46 0.46 0.0 0 1 789.40 581.31
  L 789.30 574.23
  Z"
/>
<rect fill="#bade76" x="-5.28" y="-1.29" transform="translate(513.69,584.42) rotate(-0.2)" width="10.56" height="2.58" rx="0.82"/>
<rect fill="#bade76" x="-4.97" y="-1.21" transform="translate(696.89,584.46) rotate(-0.1)" width="9.94" height="2.42" rx="0.76"/>
</svg>
